<svg xmlns="http://www.w3.org/2000/svg" xmlns:xlink="http://www.w3.org/1999/xlink"
     viewBox="0 0 197 53">
  <defs>
    <path id="ummfa"
          d="M106 1970.944v-51.675s.052-.076.33-.038a1.2 1.2 0 0 1 .434.125c1.17.492 2.167 2.042 2.99 4.057 2.225 5.432 2.327 10.96.436 16.454-.834 2.426-1.985 4.473-3.295 5.162l-.226.103.226.104c1.31.688 2.46 2.733 3.295 5.163 1.89 5.496 1.789 11.025-.435 16.455-.78 1.905-1.802 3.147-2.759 3.756 0 0-.446.262-.996.334"/>
    <path id="ummfb"
          d="M191.64 1970.944v-51.675s.05-.076.33-.038c.281.035.433.125.433.125 1.167.492 2.165 2.042 2.992 4.057 2.224 5.432 2.322 10.96.435 16.454-.835 2.426-1.988 4.473-3.298 5.162l-.224.103.224.104c1.31.688 2.463 2.733 3.298 5.163 1.887 5.496 1.789 11.025-.435 16.455-.782 1.905-1.806 3.147-2.763 3.756 0 0-.445.262-.992.334"/>
    <path id="ummfc"
          d="M217.094 1929.828c-1.166-5.08-2.79-9.365-4.641-10.528-1.848 1.163-3.474 5.448-4.638 10.528-2.519 10.99-2.384 22.05.579 32.914 1.098 4.029 2.502 7.23 4.059 8.214 1.561-.984 2.962-4.185 4.062-8.214 2.963-10.864 3.097-21.924.58-32.914m-4.367 31.732c-.072 3.756-.166 6.748-.275 7.665-.106-.917-.203-3.909-.272-7.665a838.188 838.188 0 0 1-.04-30.7c.078-4.737.186-8.735.312-9.818.126 1.083.236 5.081.315 9.818.173 10.253.162 20.57-.04 30.7"/>
    <path id="ummfd"
          d="M237.303 1929.828c-1.163-5.08-2.791-9.365-4.638-10.528-1.85 1.163-3.475 5.448-4.638 10.528-2.52 10.99-2.387 22.05.578 32.914 1.097 4.029 2.5 7.23 4.06 8.214 1.558-.984 2.962-4.185 4.06-8.214 2.964-10.864 3.097-21.924.578-32.914m-4.365 31.732c-.075 3.756-.166 6.748-.273 7.665-.107-.917-.201-3.909-.274-7.665a855.11 855.11 0 0 1-.038-30.7c.077-4.737.188-8.735.312-9.818.125 1.083.235 5.081.312 9.818.167 10.253.162 20.57-.04 30.7"/>
    <path id="ummfe"
          d="M137.7 1928.945c-2.128-4.862-4.564-8.841-6.622-9.655l5.037 26.33h-10.152l5.037-26.33c-2.058.814-4.493 4.793-6.623 9.655-4.604 10.517-6.584 21.599-5.719 33.021.32 4.231 1.098 7.7 2.462 8.971l4.693-24.534h10.452l4.691 24.534c1.36-1.271 2.142-4.74 2.461-8.971.867-11.422-1.113-22.504-5.717-33.021"/>
    <path id="ummff"
          d="M250.45 1970.944v-51.675s.051-.076.326-.038c.283.035.435.125.435.125 1.169.492 2.167 2.042 2.99 4.057 2.226 5.432 2.327 10.96.435 16.454-.83 2.426-1.984 4.473-3.293 5.162l-.226.103.226.104c1.309.688 2.463 2.733 3.293 5.163 1.892 5.496 1.79 11.025-.435 16.455-.78 1.905-1.802 3.147-2.759 3.756 0 0-.447.262-.992.334"/>
    <path id="ummfg"
          d="M282.147 1928.945c-2.128-4.862-4.563-8.841-6.621-9.655l5.037 26.33H270.41l5.04-26.33c-2.06.814-4.494 4.793-6.622 9.655-4.604 10.517-6.584 21.599-5.72 33.021.32 4.231 1.097 7.7 2.462 8.971l4.694-24.534h10.45l4.692 24.534c1.363-1.271 2.14-4.74 2.462-8.971.866-11.422-1.116-22.504-5.721-33.021"/>
    <path id="ummfh"
          d="M177.775 1928.945c-2.13-4.862-4.565-8.841-6.62-9.655l.02.127-4.68 46.594-4.737-46.683-.02.091.021-.114c-2.056.82-4.49 4.799-6.62 9.658-4.603 10.512-6.585 21.591-5.722 33.009.324 4.225 1.101 7.694 2.466 8.965l9.33-48.787 4.866 47.947.076.733h.68l.075-.733 4.81-47.843 9.31 48.683c1.367-1.271 2.143-4.74 2.465-8.971.866-11.422-1.118-22.504-5.72-33.021"/>
    <path id="ummfi"
          d="M296.216 1919.85v-.248h-.214c-.06-.059-.098-.102-.098-.102v.102h-.494v51.335h.806v-19.915c.05-.062.11-.127.163-.189 1.957 2.628 5.446 8.304 5.296 15.277v4.857h.814v-5.058c.158-7.345-3.72-13.248-5.593-15.664 11.979-14.395 1.3-28.087-.68-30.395"/>
    <path id="ummfj"
          d="M244.624 1963.538c-.33-.958-.794-1.769-1.321-1.988-.525.219-.987 1.03-1.317 1.988-.717 2.078-.68 4.164.163 6.214.312.76.712 1.367 1.154 1.549.445-.182.843-.789 1.156-1.549.844-2.05.883-4.136.165-6.214m-1.184 5.271c-.039.541-.085.973-.137 1.107-.05-.134-.098-.566-.137-1.107a36.547 36.547 0 0 1-.019-4.448c.041-.687.094-1.265.156-1.425.062.16.116.738.157 1.425a35.346 35.346 0 0 1-.02 4.448"/>
  </defs>
  <g>
    <g transform="translate(-106 -1919)">
      <g>
        <use fill="#fff" xlink:href="#ummfa"/>
      </g>
      <g>
        <use fill="#fff" xlink:href="#ummfb"/>
      </g>
      <g>
        <use fill="#fff" xlink:href="#ummfc"/>
      </g>
      <g>
        <use fill="#fff" xlink:href="#ummfd"/>
      </g>
      <g>
        <use fill="#fff" xlink:href="#ummfe"/>
      </g>
      <g>
        <use fill="#fff" xlink:href="#ummff"/>
      </g>
      <g>
        <use fill="#fff" xlink:href="#ummfg"/>
      </g>
      <g>
        <use fill="#fff" xlink:href="#ummfh"/>
      </g>
      <g>
        <use fill="#fff" xlink:href="#ummfi"/>
      </g>
      <g>
        <use fill="#fff" xlink:href="#ummfj"/>
      </g>
    </g>
  </g>
</svg>
