<svg xmlns="http://www.w3.org/2000/svg" xmlns:xlink="http://www.w3.org/1999/xlink" width="211" height="61" viewBox="0 0 211 61"><defs><path id="c04da" d="M786.005 1963.679l.014.042c.019.968-.321 1.777-1.02 2.429-.698.651-1.621.976-2.768.976-1.166 0-2.117-.412-2.85-1.239-.734-.827-1.101-1.874-1.101-3.144v-1.833c0-1.27.367-2.319 1.1-3.147.734-.829 1.685-1.243 2.85-1.243 1.167 0 2.094.31 2.783.931.689.62 1.025 1.443 1.006 2.467l-.014.043h-1.338c0-.723-.213-1.294-.638-1.714-.424-.42-1.024-.63-1.798-.63-.779 0-1.4.314-1.863.942-.463.628-.694 1.406-.694 2.336v1.847c0 .94.232 1.723.694 2.351.463.627 1.083.942 1.863.942.774 0 1.374-.21 1.798-.626.425-.418.638-.996.638-1.732h1.338z"/><path id="c04db" d="M790.588 1960.267c-.486 0-.888.187-1.206.563-.319.376-.512.856-.583 1.442l.014.036h3.45v-.114c0-.556-.136-1.017-.41-1.38-.273-.365-.695-.547-1.265-.547zm.22 6.854c-1.1 0-1.958-.351-2.574-1.055-.616-.703-.924-1.628-.924-2.775v-.312c0-1.1.317-2.01.952-2.73.635-.72 1.41-1.079 2.326-1.079 1.024 0 1.792.318 2.305.956.512.637.768 1.485.768 2.541v.736h-4.9l-.02.036c0 .769.169 1.394.509 1.873.34.478.858.718 1.557.718.472 0 .886-.067 1.243-.201.356-.135.662-.32.917-.556l.545.906c-.274.264-.634.487-1.083.67-.449.18-.99.272-1.621.272z"/><path id="c04dc" d="M801.065 1960.394h-2.532v6.577h-1.397v-6.577h-2.496v-1.084h6.425z"/><path id="c04dd" d="M804.035 1963.317v2.563h1.905c.501 0 .87-.12 1.109-.361.238-.241.357-.54.357-.898a1.3 1.3 0 0 0-.36-.914c-.24-.259-.61-.39-1.105-.39h-1.906zm0-1.09h1.905c.906 0 1.611.217 2.114.652.503.434.754.998.754 1.69 0 .7-.253 1.275-.76 1.725-.508.452-1.21.677-2.107.677h-3.301v-7.661h1.395v2.917z"/><path id="c04de" d="M818.42 1965.145h.043l2.507-5.835h1.742v7.66h-1.395v-5.316l-.042-.014-2.35 5.33h-.964l-2.393-5.451-.043.014v5.438h-1.395v-7.661h1.798z"/><path id="c04df" d="M827.264 1965.95c.505 0 .96-.13 1.367-.39.406-.258.67-.556.793-.892v-1.247h-1.565c-.562 0-1.012.142-1.349.425-.337.283-.505.616-.505.999 0 .339.106.61.318.807.213.199.526.298.941.298zm2.316 1.02a11.056 11.056 0 0 1-.11-.612 4.398 4.398 0 0 1-.046-.535c-.26.368-.598.676-1.016.924a2.591 2.591 0 0 1-1.348.372c-.797 0-1.406-.204-1.824-.612-.417-.408-.626-.97-.626-1.69 0-.73.296-1.303.889-1.716.592-.413 1.396-.62 2.41-.62h1.515v-.756c0-.449-.137-.804-.41-1.065-.274-.262-.661-.394-1.161-.394-.453 0-.82.113-1.097.34-.279.227-.418.498-.418.814l-1.324.015-.014-.042c-.033-.557.228-1.067.782-1.529.555-.463 1.272-.694 2.149-.694.868 0 1.567.22 2.096.662.528.441.793 1.078.793 1.908v3.689c0 .274.014.538.042.793.028.255.08.505.156.751h-1.438v-.003z"/><path id="c04dg" d="M837.72 1960.414h-3.475v6.557h-1.395v-7.661h4.87z"/><path id="c04dh" d="M841.254 1965.95c.505 0 .96-.13 1.367-.39.406-.258.67-.556.793-.892v-1.247h-1.565c-.562 0-1.012.142-1.349.425-.337.283-.505.616-.505.999 0 .339.106.61.318.807.213.199.526.298.941.298zm2.316 1.02a11.056 11.056 0 0 1-.11-.612 4.398 4.398 0 0 1-.046-.535c-.26.368-.598.676-1.016.924a2.591 2.591 0 0 1-1.348.372c-.797 0-1.406-.204-1.824-.612-.417-.408-.626-.97-.626-1.69 0-.73.296-1.303.889-1.716.592-.413 1.396-.62 2.41-.62h1.515v-.756c0-.449-.137-.804-.41-1.065-.274-.262-.661-.394-1.161-.394-.453 0-.82.113-1.097.34-.279.227-.418.498-.418.814l-1.324.015-.014-.042c-.033-.557.228-1.067.782-1.529.555-.463 1.272-.694 2.149-.694.868 0 1.567.22 2.096.662.528.441.793 1.078.793 1.908v3.689c0 .274.014.538.042.793.028.255.08.505.156.751h-1.438v-.003z"/><path id="c04di" d="M849.806 1962.504c.543 0 .943-.095 1.2-.283.258-.188.387-.459.387-.808 0-.316-.143-.587-.428-.81-.287-.225-.7-.337-1.243-.337-.482 0-.885.116-1.211.347-.326.231-.489.513-.489.843h-1.316l-.014-.043c-.029-.655.252-1.19.842-1.603.59-.413 1.32-.62 2.189-.62.944 0 1.69.192 2.24.577.55.385.825.933.825 1.646 0 .345-.114.661-.343.95-.23.287-.546.514-.952.679.463.152.818.379 1.066.68.248.303.371.668.371 1.098 0 .713-.297 1.274-.892 1.682-.594.408-1.366.612-2.316.612-.872 0-1.623-.201-2.251-.606-.628-.403-.927-.987-.9-1.752l.015-.043h1.316c0 .36.17.67.51.935.34.264.777.396 1.31.396.552 0 .991-.117 1.317-.353.326-.236.489-.527.489-.872 0-.405-.144-.704-.432-.896-.288-.19-.717-.287-1.289-.287h-1.472v-1.133h1.471z"/><path id="c04dj" d="M859.454 1959.31h1.396v7.66h-1.396v-5.437l-.042-.014-3.384 5.452h-1.388v-7.661h1.388v5.438l.042.014z"/><path id="c04dk" d="M869.083 1966.97h-1.395v-3.256h-3.414v3.257h-1.394v-7.66h1.394v3.313h3.414v-3.314h1.395z"/><path id="c04dl" d="M872.194 1963.227c0 .813.172 1.482.514 2.011.341.529.85.793 1.525.793.666 0 1.17-.264 1.515-.793s.517-1.198.517-2.01v-.157c0-.802-.173-1.47-.52-2.003-.347-.534-.857-.8-1.526-.8-.666 0-1.17.267-1.511.8-.342.533-.514 1.2-.514 2.003zm-1.394-.156c0-1.132.307-2.066.92-2.8.614-.734 1.447-1.101 2.5-1.101 1.062 0 1.9.365 2.517 1.097.615.732.924 1.667.924 2.803v.156c0 1.143-.308 2.078-.92 2.804-.614.727-1.45 1.09-2.507 1.09-1.057 0-1.893-.363-2.51-1.093-.616-.73-.924-1.663-.924-2.8v-.156z"/><path id="c04dm" d="M880.765 1963.62h2.118c.515 0 .904.1 1.17.297.263.197.395.478.395.84 0 .367-.132.648-.395.843-.267.195-.655.293-1.17.293h-2.118zm0-1.07v-2.156h1.629c.59 0 1.036.093 1.338.276.303.185.453.46.453.824 0 .353-.15.618-.45.793-.298.175-.745.263-1.334.263zm-1.395 4.422h3.511c.935 0 1.664-.184 2.185-.552.522-.368.782-.91.782-1.628a1.7 1.7 0 0 0-.4-1.11c-.266-.322-.638-.544-1.114-.661.396-.146.703-.36.92-.64.217-.281.325-.602.325-.96 0-.703-.279-1.232-.834-1.583-.558-.352-1.34-.528-2.352-.528h-3.023z"/><path id="c04dn" d="M894.26 1966.031c.43 0 .806-.143 1.126-.428.322-.285.481-.636.481-1.05h1.261l.02.04c.02.662-.263 1.248-.849 1.76a2.997 2.997 0 0 1-2.039.769c-1.076 0-1.907-.367-2.491-1.098-.586-.732-.879-1.642-.879-2.733v-.297c0-1.081.294-1.989.881-2.723.589-.734 1.417-1.101 2.489-1.101.854 0 1.554.265 2.1.793.545.529.808 1.178.789 1.947l-.014.042h-1.268c0-.467-.151-.865-.456-1.193a1.503 1.503 0 0 0-1.151-.492c-.684 0-1.184.265-1.497.797-.315.53-.47 1.174-.47 1.929v.297c0 .769.154 1.418.463 1.948.31.529.812.793 1.505.793z"/><path id="c04do" d="M901.193 1965.95c.506 0 .962-.13 1.368-.39.404-.258.67-.556.792-.892v-1.247h-1.564c-.562 0-1.012.142-1.349.425-.337.283-.506.616-.506.999 0 .339.107.61.319.807.213.199.525.298.94.298zm2.316 1.02a12.082 12.082 0 0 1-.11-.612 4.397 4.397 0 0 1-.045-.535c-.26.368-.599.676-1.016.924a2.594 2.594 0 0 1-1.349.372c-.797 0-1.405-.204-1.823-.612-.418-.408-.626-.97-.626-1.69 0-.73.296-1.303.889-1.716.592-.413 1.396-.62 2.41-.62h1.515v-.756c0-.449-.137-.804-.41-1.065-.274-.262-.661-.394-1.161-.394-.454 0-.82.113-1.098.34-.279.227-.418.498-.418.814l-1.324.015-.014-.042c-.034-.557.227-1.067.781-1.529.555-.463 1.272-.694 2.15-.694.868 0 1.567.22 2.095.662.53.441.794 1.078.794 1.908v3.689c0 .274.014.538.041.793.03.255.081.505.157.751h-1.438v-.003z"/><path id="c04dp" d="M912.974 1966.97h-1.395v-3.256h-3.414v3.257h-1.395v-7.66h1.395v3.313h3.414v-3.314h1.395z"/><path id="c04dq" d="M920.925 1960.394h-2.528v6.577H917v-6.577h-2.491v-1.084h6.415z"/><path id="c04dr" d="M925.258 1960.267c-.485 0-.888.187-1.206.563-.319.376-.512.856-.583 1.442l.014.036h3.451v-.114c0-.556-.137-1.017-.41-1.38-.274-.365-.695-.547-1.266-.547zm.22 6.854c-1.1 0-1.959-.351-2.574-1.055-.616-.703-.924-1.628-.924-2.775v-.312c0-1.1.317-2.01.953-2.73.634-.72 1.41-1.079 2.326-1.079 1.024 0 1.792.318 2.305.956.512.637.767 1.485.767 2.541v.736h-4.899l-.022.036c0 .769.17 1.394.51 1.873.34.478.86.718 1.557.718.472 0 .887-.067 1.243-.201.357-.135.663-.32.917-.556l.544.906c-.273.264-.634.487-1.083.67-.449.18-.988.272-1.62.272z"/><path id="c04ds" d="M932.496 1962.136l1.628-2.826h1.63l-2.486 3.788 2.556 3.873h-1.6l-1.7-2.896-1.7 2.896h-1.614l2.556-3.873-2.485-3.788h1.608z"/><path id="c04dt" d="M943.394 1966.97H942v-3.256h-3.414v3.257h-1.395v-7.66h1.395v3.313H942v-3.314h1.395z"/><path id="c04du" d="M950.245 1959.31h1.395v7.66h-1.395v-5.437l-.042-.014-3.384 5.452h-1.389v-7.661h1.389v5.438l.041.014z"/><path id="c04dv" d="M955.86 1963.72h-.716v3.25h-1.394v-7.66h1.395v3.236h.595l2.74-3.236h1.635l.013.035-3.179 3.64 3.42 3.95-.015.036h-1.713z"/><path id="c04dw" d="M966.425 1959.31h1.395v7.66h-1.395v-5.437l-.042-.014-3.384 5.452h-1.389v-7.661h1.389v5.438l.041.014z"/><path id="c04dx" d="M769 1976.39v-58.38h208.09v58.38z"/><path id="c04dy" d="M963.45 1948.62v-4.37h4.37v4.37z"/><path id="c04dz" d="M963.45 1943.37V1939h4.37v4.37z"/><path id="c04dA" d="M963.45 1938.11v-4.37h4.37v4.37z"/><path id="c04dB" d="M963.45 1932.86v-4.37h4.37v4.37z"/><path id="c04dC" d="M958.22 1943.37V1939h4.37v4.37z"/><path id="c04dD" d="M958.22 1938.11v-4.37h4.37v4.37z"/><path id="c04dE" d="M958.22 1932.86v-4.37h4.37v4.37z"/><path id="c04dF" d="M952.99 1938.11v-4.37h4.37v4.37z"/><path id="c04dG" d="M952.99 1932.86v-4.37h4.37v4.37z"/><path id="c04dH" d="M947.71 1932.86v-4.37h4.37v4.37z"/><path id="c04dI" d="M778.28 1932.87v-4.37h4.37v4.37z"/><path id="c04dJ" d="M778.28 1938.12v-4.37h4.37v4.37z"/><path id="c04dK" d="M778.28 1943.38v-4.37h4.37v4.37z"/><path id="c04dL" d="M778.28 1948.63v-4.37h4.37v4.37z"/><path id="c04dM" d="M783.51 1938.12v-4.37h4.37v4.37z"/><path id="c04dN" d="M783.51 1943.38v-4.37h4.37v4.37z"/><path id="c04dO" d="M783.51 1948.63v-4.37h4.37v4.37z"/><path id="c04dP" d="M788.74 1943.38v-4.37h4.37v4.37z"/><path id="c04dQ" d="M788.74 1948.63v-4.37h4.37v4.37z"/><path id="c04dR" d="M794.02 1948.63v-4.37h4.37v4.37z"/><path id="c04dS" d="M927.69 1947.144c.275.417.716.625 1.326.625v.763h-5.734v-.763c.773-.102 1.261-.447 1.464-1.037.122-.346.183-1.057.183-2.135v-6.956c0-1.118-.061-1.86-.183-2.227-.224-.67-.711-1.057-1.464-1.159v-.762h9.274v.762c-.428 0-.641.214-.641.64 0 .367.213.795.64 1.278l1.79 2.562 1.87-2.527c.388-.529.58-.997.58-1.404 0-.366-.152-.548-.457-.548v-.763h8.175l.031.763c-.778.122-1.266.478-1.47 1.067-.116.346-.177 1.047-.177 2.105v6.985c0 1.241.06 2.045.183 2.411.203.63.691.945 1.464.945v.763h-8.786v-.763c.61 0 1.017-.223 1.22-.671.143-.325.214-.874.214-1.647v-7.108l-5.064 6.833-4.85-6.802v6.04c0 1.403.138 2.313.412 2.73zm-11.989-3.859c.112-.65.168-1.251.168-1.8 0-.772-.056-1.536-.168-2.288-.112-.752-.3-1.403-.564-1.952-.264-.549-.58-.976-.946-1.281-.447-.366-.925-.55-1.433-.55-1.099 0-1.892.6-2.38 1.801-.366.874-.55 1.942-.55 3.202 0 1.424.214 2.695.642 3.814.59 1.566 1.484 2.348 2.684 2.348.448.02.875-.151 1.282-.518.325-.284.6-.671.823-1.159.183-.427.33-.966.442-1.617zm-11.24 1.526a8.254 8.254 0 0 1-.733-3.447c0-2.563.936-4.607 2.807-6.132 1.748-1.424 3.935-2.136 6.558-2.136 2.562 0 4.647.661 6.254 1.983 1.749 1.444 2.624 3.437 2.624 5.98 0 2.48-.926 4.443-2.777 5.886-1.708 1.322-3.833 1.983-6.375 1.983-1.16 0-2.273-.121-3.34-.366a8.61 8.61 0 0 1-2.884-1.22c-.935-.61-1.647-1.454-2.134-2.531zm-10.608 1.403c.448-.265.673-.865.673-1.8V1932.7c0-.834-.123-1.428-.367-1.784-.244-.356-.662-.534-1.252-.534-1.039 0-2.026.528-2.962 1.585-1.18 1.384-2.199 3.143-3.054 5.278-.998 2.501-1.497 4.911-1.497 7.23 0 .936.184 1.515.55 1.739.245.142.886.213 1.924.213h4.307c.874 0 1.434-.071 1.678-.213zm-13.599 1.311c.153.061.27.092.351.092.386 0 .712-.31.977-.93.263-.621.477-1.378.64-2.274.366-2.277.935-4.403 1.708-6.375.997-2.603 2.299-4.88 3.905-6.833.265-.366.396-.753.396-1.16 0-.548-.264-.823-.792-.823h-.276v-.762h15.284v.762c-.732 0-1.22.357-1.465 1.068-.142.427-.212 1.2-.212 2.319v11.957c0 .956.06 1.693.182 2.212.122.518.386.777.793.777.184 0 .417-.08.702-.243l1.342 6.985-.61.123c-.854-2.258-1.932-3.834-3.233-4.729-1.119-.773-2.462-1.16-4.028-1.16h-9.609c-2.013 0-3.68.632-5.002 1.893-1.078 1.016-1.83 2.348-2.257 3.996l-.641-.123 1.495-6.985c.08.08.198.152.35.213zm-20.18-13.27c-.934 0-1.402.824-1.402 2.471v8.572c0 .55.091.905.275 1.068.182.163.57.244 1.159.244h.64c.57 0 .951-.086 1.144-.259.193-.173.29-.524.29-1.053v-8.572c0-.854-.101-1.479-.305-1.876-.203-.396-.57-.595-1.098-.595v-.762h8.755v.763c-1.099 0-1.648.823-1.648 2.47v8.572c0 1.647.55 2.471 1.648 2.471v.763h-27.425v-.763c1.1 0 1.648-.824 1.648-2.47v-8.573c0-1.647-.549-2.47-1.648-2.47v-.763h8.755v.763c-.935 0-1.403.823-1.403 2.47v8.572c0 .55.092.905.275 1.068.183.163.57.244 1.16.244h.64c.57 0 .95-.086 1.144-.259.193-.173.29-.524.29-1.053v-8.572c0-.854-.102-1.479-.305-1.876-.204-.396-.57-.595-1.098-.595v-.762h8.51zm-29.923 8.134c-.367.52-.55 1.055-.55 1.605 0 .509.148.952.443 1.329.296.377.698.566 1.208.566 1.1 0 1.885-.704 2.354-2.11.326-.978.49-2.159.49-3.544-.632.102-1.127.208-1.483.32-.357.113-.74.301-1.147.566a4.7 4.7 0 0 0-1.315 1.268zm3.934-4.686c0-.346-.025-.631-.076-.854a1.434 1.434 0 0 0-.35-.64 2.24 2.24 0 0 0-1.013-.627 4.786 4.786 0 0 0-1.316-.167c-1.226 0-2.314.33-3.26.991-.95.661-1.672 1.561-2.16 2.7h-.61l.61-5.522c.183.184.34.315.473.397.132.082.31.122.534.122.183 0 .386-.02.609-.061.224-.04.428-.081.61-.122 1.546-.345 2.69-.57 3.432-.671.743-.102 1.47-.153 2.182-.153.956 0 1.82.077 2.592.23.773.152 1.46.457 2.06.914.6.458 1.001 1.155 1.205 2.09.121.57.182 1.413.182 2.532v6.193c0 .813.082 1.403.244 1.769.245.569.723.884 1.434.945v.763h-6.319a3.441 3.441 0 0 1-.635-.915 5.804 5.804 0 0 1-.428-1.13c-.508.754-1.347 1.364-2.506 1.831a8.302 8.302 0 0 1-3.092.61c-1.225 0-2.277-.324-3.151-.976-.962-.71-1.44-1.668-1.44-2.867 0-1.464.6-2.695 1.805-3.691.961-.793 2.324-1.454 4.098-1.983 1.226-.365 2.654-.67 4.286-.915v-.244zm-24.343 6.803c0 .833.097 1.377.29 1.631.193.255.707.382 1.54.382 1.342 0 2.43-.356 3.264-1.068.834-.712 1.25-1.74 1.25-3.08 0-1.1-.29-2.056-.87-2.869-.579-.813-1.388-1.505-2.425-2.074l-3.05 1.037v6.04zm3.21-9.518c1.222-.773 1.834-1.668 1.834-2.684 0-.631-.29-1.094-.871-1.388a4.163 4.163 0 0 0-1.91-.443c-.428 0-.81.025-1.147.076-.336.051-.606.178-.81.382a.751.751 0 0 0-.245.442c-.04.193-.06.401-.06.625v.336l-.001 3.935c1.243-.285 2.312-.712 3.21-1.281zm-9.83-5.049c-.244-.478-.681-.717-1.312-.717v-.762h13.514c1.667 0 2.857.121 3.568.366 1.282.448 1.922 1.332 1.922 2.654 0 1.118-.6 2.135-1.8 3.05-.793.59-1.901 1.17-3.324 1.739 1.931.325 3.498.976 4.698 1.953 1.443 1.159 2.165 2.643 2.165 4.453 0 1.058-.259 1.982-.778 2.776-.518.793-1.266 1.464-2.242 2.013-.711.428-1.581.712-2.609.854-1.026.142-2.13.214-3.31.214H801.81v-.763c.63 0 1.068-.229 1.312-.686.243-.458.366-1.246.366-2.365v-12.446c0-1.077-.123-1.854-.366-2.333z"/></defs><g><g transform="translate(-768 -1917)"><g><use fill="#fefefe" xlink:href="#c04da"/></g><g><use fill="#fefefe" xlink:href="#c04db"/></g><g><use fill="#fefefe" xlink:href="#c04dc"/></g><g><use fill="#fefefe" xlink:href="#c04dd"/></g><g><use fill="#fefefe" xlink:href="#c04de"/></g><g><use fill="#fefefe" xlink:href="#c04df"/></g><g><use fill="#fefefe" xlink:href="#c04dg"/></g><g><use fill="#fefefe" xlink:href="#c04dh"/></g><g><use fill="#fefefe" xlink:href="#c04di"/></g><g><use fill="#fefefe" xlink:href="#c04dj"/></g><g><use fill="#fefefe" xlink:href="#c04dk"/></g><g><use fill="#fefefe" xlink:href="#c04dl"/></g><g><use fill="#fefefe" xlink:href="#c04dm"/></g><g><use fill="#fefefe" xlink:href="#c04dn"/></g><g><use fill="#fefefe" xlink:href="#c04do"/></g><g><use fill="#fefefe" xlink:href="#c04dp"/></g><g><use fill="#fefefe" xlink:href="#c04dq"/></g><g><use fill="#fefefe" xlink:href="#c04dr"/></g><g><use fill="#fefefe" xlink:href="#c04ds"/></g><g><use fill="#fefefe" xlink:href="#c04dt"/></g><g><use fill="#fefefe" xlink:href="#c04du"/></g><g><use fill="#fefefe" xlink:href="#c04dv"/></g><g><use fill="#fefefe" xlink:href="#c04dw"/></g><g><use fill="#fff" fill-opacity="0" stroke="#fff" stroke-miterlimit="50" stroke-width="1.88" xlink:href="#c04dx"/></g><g><use fill="#fefefe" xlink:href="#c04dy"/></g><g><use fill="#fefefe" xlink:href="#c04dz"/></g><g><use fill="#fefefe" xlink:href="#c04dA"/></g><g><use fill="#fefefe" xlink:href="#c04dB"/></g><g><use fill="#fefefe" xlink:href="#c04dC"/></g><g><use fill="#fefefe" xlink:href="#c04dD"/></g><g><use fill="#fefefe" xlink:href="#c04dE"/></g><g><use fill="#fefefe" xlink:href="#c04dF"/></g><g><use fill="#fefefe" xlink:href="#c04dG"/></g><g><use fill="#fefefe" xlink:href="#c04dH"/></g><g><use fill="#fefefe" xlink:href="#c04dI"/></g><g><use fill="#fefefe" xlink:href="#c04dJ"/></g><g><use fill="#fefefe" xlink:href="#c04dK"/></g><g><use fill="#fefefe" xlink:href="#c04dL"/></g><g><use fill="#fefefe" xlink:href="#c04dM"/></g><g><use fill="#fefefe" xlink:href="#c04dN"/></g><g><use fill="#fefefe" xlink:href="#c04dO"/></g><g><use fill="#fefefe" xlink:href="#c04dP"/></g><g><use fill="#fefefe" xlink:href="#c04dQ"/></g><g><use fill="#fefefe" xlink:href="#c04dR"/></g><g><use fill="#fefefe" xlink:href="#c04dS"/></g></g></g></svg>