<?xml version="1.0" encoding="utf-8"?>
<!-- Generator: Adobe Illustrator 22.0.1, SVG Export Plug-In . SVG Version: 6.00 Build 0)  -->
<svg version="1.1" id="Слой_1" xmlns="http://www.w3.org/2000/svg" xmlns:xlink="http://www.w3.org/1999/xlink" x="0px" y="0px"
	 viewBox="0 0 25 25" style="enable-background:new 0 0 25 25;" xml:space="preserve">
<style type="text/css">
	.st0{opacity:0.9;}
	.st1{fill:#FFFFFF;}
</style>
<g>
	<g transform="translate(-1367 -787)" class="st0">
		<g>
			<path id="b6fra" class="st1" d="M1387.2,809.1c-0.4-0.1-0.8-0.3-1.2-0.5l2.6-2.6c0.2,0.4,0.4,0.8,0.5,1.2l0.9,2.8L1387.2,809.1z
				 M1379.3,802L1379.3,802l-1.3-1.3l2.7-2.7l1.3,1.3l0,0l-0.3-0.3l-2.6,2.6L1379.3,802z M1387.8,805.2c0.1,0.1,0.1,0.1,0.2,0.2
				l-2.6,2.6c-0.1-0.1-0.1-0.1-0.2-0.2l-5.9-5.9l2.6-2.6L1387.8,805.2z M1371,793.6l2.6-2.6l6.4,6.4l-2.6,2.6L1371,793.6z
				 M1370.2,790.9l0.7-0.7c0.2-0.2,0.6-0.2,0.8,0c0,0,0,0,0,0l1.3,1.3l-1.6,1.6l-1.3-1.3C1369.9,791.5,1369.9,791.1,1370.2,790.9
				L1370.2,790.9z M1390.8,807.6c-0.3-1-0.9-2-1.7-2.7l-16.1-16.1c-0.2-0.2-0.6-0.2-0.9,0l-0.1,0.1l-1.3-1.3c-0.7-0.7-1.9-0.7-2.6,0
				c0,0,0,0,0,0l-0.7,0.8c-0.7,0.7-0.7,1.9,0,2.6l1.3,1.3l-0.5,0.5c-1.2,1.2-1.2,3.1,0,4.3c0,0,0,0,0,0l4.9,4.8
				c0.3,0.2,0.6,0.2,0.9,0c0.2-0.2,0.2-0.6,0-0.8l-4.9-4.8c-0.7-0.7-0.7-1.8,0-2.5l7.3,7.3l1.3,1.3l0.9,0.9l6.2,6.2
				c0.8,0.8,1.7,1.3,2.7,1.7l3.6,1.1c0.3,0.1,0.7-0.1,0.8-0.4c0-0.1,0-0.2,0-0.4L1390.8,807.6z"/>
		</g>
	</g>
</g>
</svg>
