<?xml version="1.0" encoding="utf-8"?>
<!-- Generator: Adobe Illustrator 22.0.1, SVG Export Plug-In . SVG Version: 6.00 Build 0)  -->
<svg version="1.1" id="Слой_1" xmlns="http://www.w3.org/2000/svg" xmlns:xlink="http://www.w3.org/1999/xlink" x="0px" y="0px"
	 viewBox="0 0 19 19" style="enable-background:new 0 0 19 19;" xml:space="preserve">
<style type="text/css">
	.st0{opacity:0.9;}
	.st1{opacity:0;}
	.st2{fill:#FFFFFF;}
</style>
<g>
	<g transform="translate(-1019 -27)" class="st0">
		<g>
			<g id="vx3ea">
				<path d="M1034.2,43.4c-0.2-0.1-0.5-0.2-0.7-0.3l1.6-1.6c0.1,0.2,0.2,0.5,0.3,0.7l0.5,1.7L1034.2,43.4z M1028.5,38.3l1.8-1.8
					l4.2,4.2c0,0,0.1,0.1,0.1,0.1l-1.8,1.8c0,0-0.1-0.1-0.1-0.1L1028.5,38.3z M1027,36.8l1.8-1.8l0.9,0.9l-1.8,1.8L1027,36.8z
					 M1022,31.9l1.8-1.8l4.4,4.4l-1.8,1.8L1022,31.9z M1020.9,29.5l0.5-0.5c0.2-0.2,0.4-0.2,0.6,0c0,0,0,0,0,0l0.9,0.9l-1.1,1.1
					l-0.9-0.9C1020.8,29.9,1020.8,29.6,1020.9,29.5L1020.9,29.5z M1036.2,42c-0.2-0.7-0.6-1.3-1.1-1.9l-11-10.9
					c-0.2-0.2-0.4-0.2-0.6,0l-0.1,0.1l-0.9-0.9c-0.5-0.5-1.3-0.5-1.8,0c0,0,0,0,0,0l-0.5,0.5c-0.5,0.5-0.5,1.3,0,1.7l0.9,0.9
					l-0.3,0.3c-0.8,0.8-0.8,2.1,0,2.9c0,0,0,0,0,0l3.3,3.3c0.2,0.2,0.4,0.1,0.6,0c0.1-0.2,0.1-0.4,0-0.5l-3.3-3.3
					c-0.5-0.5-0.5-1.2,0-1.7l4.9,4.9l0.9,0.9l0.6,0.6l4.2,4.2c0.5,0.5,1.2,0.9,1.9,1.1l2.5,0.8c0.2,0.1,0.4-0.1,0.5-0.3
					c0-0.1,0-0.2,0-0.2L1036.2,42z"/>
			</g>
		</g>
		<g>
			<g id="vx3ea_1_">
				<g class="st1">
					<g>
						<path class="st2" d="M1034.2,43.4c-0.2-0.1-0.5-0.2-0.7-0.3l1.6-1.6c0.1,0.2,0.2,0.5,0.3,0.7l0.5,1.7L1034.2,43.4z
							 M1028.5,38.3l1.8-1.8l4.2,4.2c0,0,0.1,0.1,0.1,0.1l-1.8,1.8c0,0-0.1-0.1-0.1-0.1L1028.5,38.3z M1027,36.8l1.8-1.8l0.9,0.9
							l-1.8,1.8L1027,36.8z M1022,31.9l1.8-1.8l4.4,4.4l-1.8,1.8L1022,31.9z M1020.9,29.5l0.5-0.5c0.2-0.2,0.4-0.2,0.6,0
							c0,0,0,0,0,0l0.9,0.9l-1.1,1.1l-0.9-0.9C1020.8,29.9,1020.8,29.6,1020.9,29.5L1020.9,29.5z M1036.2,42
							c-0.2-0.7-0.6-1.3-1.1-1.9l-11-10.9c-0.2-0.2-0.4-0.2-0.6,0l-0.1,0.1l-0.9-0.9c-0.5-0.5-1.3-0.5-1.8,0c0,0,0,0,0,0l-0.5,0.5
							c-0.5,0.5-0.5,1.3,0,1.7l0.9,0.9l-0.3,0.3c-0.8,0.8-0.8,2.1,0,2.9c0,0,0,0,0,0l3.3,3.3c0.2,0.2,0.4,0.1,0.6,0
							c0.1-0.2,0.1-0.4,0-0.5l-3.3-3.3c-0.5-0.5-0.5-1.2,0-1.7l4.9,4.9l0.9,0.9l0.6,0.6l4.2,4.2c0.5,0.5,1.2,0.9,1.9,1.1l2.5,0.8
							c0.2,0.1,0.4-0.1,0.5-0.3c0-0.1,0-0.2,0-0.2L1036.2,42z"/>
					</g>
				</g>
				<g>
					<path d="M1036.6,45.5c-0.1,0-0.2,0-0.3,0l-2.5-0.8c-0.8-0.2-1.5-0.7-2.1-1.2l-10.1-10.1c0,0.2,0.1,0.4,0.2,0.5l3.3,3.3
						c0.3,0.4,0.3,0.9,0,1.2c-0.2,0.2-0.4,0.3-0.6,0.3c-0.3,0-0.5-0.1-0.7-0.2l-3.3-3.3c-0.5-0.5-0.8-1.1-0.8-1.8
						c0-0.7,0.3-1.3,0.7-1.8L1020,31c-0.7-0.7-0.7-1.8,0-2.4l0.5-0.5c0.3-0.3,0.8-0.5,1.2-0.5c0,0,0,0,0,0c0.5,0,0.9,0.2,1.2,0.5
						l0.6,0.6c0.3-0.1,0.7,0,0.9,0.2l11,10.9c0.6,0.6,1,1.3,1.2,2.1l0.8,2.5c0.1,0.2,0.1,0.4,0,0.5
						C1037.3,45.2,1037,45.5,1036.6,45.5z M1034.4,43l0.8,0.3l-0.3-0.8L1034.4,43z M1029.2,38.3l3.7,3.7l1.1-1.1l-3.7-3.7
						L1029.2,38.3z M1024.6,37.7L1024.6,37.7L1024.6,37.7L1024.6,37.7z M1027.7,36.8l0.2,0.2l1.1-1.1l-0.2-0.2L1027.7,36.8z
						 M1022.8,31.9l3.7,3.7l1.1-1.1l-3.7-3.7L1022.8,31.9z M1021.4,29.8l0.5,0.5l0.4-0.4l-0.5-0.5L1021.4,29.8z"/>
				</g>
			</g>
		</g>
	</g>
</g>
</svg>
