<?xml version="1.0" encoding="utf-8"?>
<!-- Generator: Adobe Illustrator 22.0.1, SVG Export Plug-In . SVG Version: 6.00 Build 0)  -->
<svg version="1.1" id="Слой_1" xmlns="http://www.w3.org/2000/svg" xmlns:xlink="http://www.w3.org/1999/xlink" x="0px" y="0px"
	 viewBox="0 0 18 18" style="enable-background:new 0 0 18 18;" xml:space="preserve">
<style type="text/css">
	.st0{opacity:0.9;}
	.st1{opacity:0;}
	.st2{fill:#FFFFFF;}
</style>
<g>
	<g transform="translate(-1197 -27)" class="st0">
		<g>
			<path id="hlg3a" d="M1198.8,31.5c0-0.4,0.2-0.8,0.5-1.1l1.2-1.2c0.2-0.2,0.4-0.3,0.6-0.3c0.2,0,0.4,0.1,0.6,0.3
				c0.2,0.2,0.4,0.4,0.7,0.6c0.1,0.1,0.2,0.2,0.3,0.4l1,1c0.2,0.2,0.3,0.4,0.3,0.6c0,0.2-0.1,0.4-0.3,0.6c-0.1,0.1-0.2,0.2-0.3,0.3
				c-0.3,0.3-0.6,0.6-0.9,0.9l0,0c-0.3,0.3-0.2,0.5-0.2,0.7l0,0c0.3,0.6,0.6,1.2,1.2,1.9c1,1.2,2.1,2.2,3.2,2.9
				c0.1,0.1,0.3,0.2,0.4,0.2c0.1,0.1,0.3,0.1,0.4,0.2l0,0c0.1,0.1,0.2,0.1,0.3,0.1c0.3,0,0.4-0.2,0.5-0.2l1.2-1.2
				c0.2-0.2,0.4-0.3,0.6-0.3c0.3,0,0.5,0.2,0.6,0.3l2,2c0.4,0.4,0.4,0.8,0,1.3c-0.1,0.2-0.3,0.3-0.4,0.4c-0.2,0.2-0.5,0.5-0.7,0.7
				c-0.4,0.4-0.8,0.6-1.4,0.6c-0.1,0-0.1,0-0.2,0c-1.1-0.1-2.1-0.5-2.9-0.9c-2.1-1-3.9-2.4-5.4-4.2c-1.2-1.5-2.1-2.9-2.6-4.4
				C1198.9,32.9,1198.8,32.1,1198.8,31.5z M1201.2,38.6c1.6,1.9,3.5,3.4,5.7,4.4c0.8,0.4,1.9,0.9,3.2,0.9c0.1,0,0.2,0,0.2,0
				c0.8,0,1.5-0.3,2-0.9c0,0,0,0,0,0c0.2-0.2,0.4-0.4,0.6-0.7c0.2-0.1,0.3-0.3,0.5-0.5c0.7-0.7,0.7-1.7,0-2.4l-2-2
				c-0.3-0.4-0.7-0.5-1.2-0.5s-0.8,0.2-1.2,0.5l-1.2,1.2c-0.1-0.1-0.2-0.1-0.3-0.2c-0.1-0.1-0.2-0.1-0.4-0.2c-1.1-0.7-2.1-1.6-3-2.7
				c-0.5-0.6-0.8-1.1-1-1.6c0.3-0.3,0.6-0.6,0.9-0.9c0.1-0.1,0.2-0.2,0.3-0.3c0.4-0.4,0.6-0.8,0.6-1.2c0-0.4-0.2-0.8-0.6-1.2l-1-1
				c-0.1-0.1-0.2-0.2-0.3-0.3c-0.2-0.2-0.4-0.5-0.7-0.7c-0.3-0.3-0.7-0.5-1.2-0.5c-0.4,0-0.8,0.2-1.2,0.5l-1.2,1.2
				c-0.5,0.5-0.7,1-0.8,1.6c-0.1,0.8,0.1,1.6,0.5,2.7C1199.1,35.6,1199.9,37.1,1201.2,38.6L1201.2,38.6z"/>
		</g>
		<g>
			<g id="hlg3a_1_">
				<g class="st1">
					<g>
						<path class="st2" d="M1198.8,31.5c0-0.4,0.2-0.8,0.5-1.1l1.2-1.2c0.2-0.2,0.4-0.3,0.6-0.3c0.2,0,0.4,0.1,0.6,0.3
							c0.2,0.2,0.4,0.4,0.7,0.6c0.1,0.1,0.2,0.2,0.3,0.4l1,1c0.2,0.2,0.3,0.4,0.3,0.6c0,0.2-0.1,0.4-0.3,0.6
							c-0.1,0.1-0.2,0.2-0.3,0.3c-0.3,0.3-0.6,0.6-0.9,0.9l0,0c-0.3,0.3-0.2,0.5-0.2,0.7l0,0c0.3,0.6,0.6,1.2,1.2,1.9
							c1,1.2,2.1,2.2,3.2,2.9c0.1,0.1,0.3,0.2,0.4,0.2c0.1,0.1,0.3,0.1,0.4,0.2l0,0c0.1,0.1,0.2,0.1,0.3,0.1c0.3,0,0.4-0.2,0.5-0.2
							l1.2-1.2c0.2-0.2,0.4-0.3,0.6-0.3c0.3,0,0.5,0.2,0.6,0.3l2,2c0.4,0.4,0.4,0.8,0,1.3c-0.1,0.2-0.3,0.3-0.4,0.4
							c-0.2,0.2-0.5,0.5-0.7,0.7c-0.4,0.4-0.8,0.6-1.4,0.6c-0.1,0-0.1,0-0.2,0c-1.1-0.1-2.1-0.5-2.9-0.9c-2.1-1-3.9-2.4-5.4-4.2
							c-1.2-1.5-2.1-2.9-2.6-4.4C1198.9,32.9,1198.8,32.1,1198.8,31.5z M1201.2,38.6c1.6,1.9,3.5,3.4,5.7,4.4
							c0.8,0.4,1.9,0.9,3.2,0.9c0.1,0,0.2,0,0.2,0c0.8,0,1.5-0.3,2-0.9c0,0,0,0,0,0c0.2-0.2,0.4-0.4,0.6-0.7
							c0.2-0.1,0.3-0.3,0.5-0.5c0.7-0.7,0.7-1.7,0-2.4l-2-2c-0.3-0.4-0.7-0.5-1.2-0.5s-0.8,0.2-1.2,0.5l-1.2,1.2
							c-0.1-0.1-0.2-0.1-0.3-0.2c-0.1-0.1-0.2-0.1-0.4-0.2c-1.1-0.7-2.1-1.6-3-2.7c-0.5-0.6-0.8-1.1-1-1.6c0.3-0.3,0.6-0.6,0.9-0.9
							c0.1-0.1,0.2-0.2,0.3-0.3c0.4-0.4,0.6-0.8,0.6-1.2c0-0.4-0.2-0.8-0.6-1.2l-1-1c-0.1-0.1-0.2-0.2-0.3-0.3
							c-0.2-0.2-0.4-0.5-0.7-0.7c-0.3-0.3-0.7-0.5-1.2-0.5c-0.4,0-0.8,0.2-1.2,0.5l-1.2,1.2c-0.5,0.5-0.7,1-0.8,1.6
							c-0.1,0.8,0.1,1.6,0.5,2.7C1199.1,35.6,1199.9,37.1,1201.2,38.6L1201.2,38.6z"/>
					</g>
				</g>
				<g>
					<path d="M1210.3,44.5c-0.1,0-0.2,0-0.3,0c-1.3-0.1-2.5-0.6-3.4-1c-2.3-1.1-4.2-2.6-5.8-4.6l0,0c-1.3-1.6-2.2-3.1-2.9-4.7
						c-0.4-1.1-0.6-2-0.5-2.9c0.1-0.8,0.4-1.4,0.9-1.9l1.2-1.2c0.9-0.9,2.2-0.9,3.1,0c0.2,0.2,0.5,0.4,0.7,0.7l1.3,1.3
						c0.5,0.5,0.7,1,0.7,1.5c0,0.6-0.2,1.1-0.7,1.5l-0.3,0.3c-0.2,0.2-0.4,0.4-0.6,0.6c0.2,0.4,0.4,0.7,0.8,1.2
						c0.9,1.1,1.9,2,2.9,2.6c0.1,0.1,0.2,0.1,0.3,0.2c0,0,0,0,0,0l0.9-0.9c0.9-0.9,2.2-0.9,3.1,0l2,2c0.9,0.9,0.9,2.1,0,3.1
						c-0.2,0.2-0.3,0.3-0.5,0.5c-0.3,0.2-0.4,0.4-0.6,0.6l-0.1,0.1C1212.1,44.2,1211.3,44.5,1210.3,44.5z M1199.3,31.5
						c0,0.6,0.1,1.3,0.4,2.1c0.5,1.4,1.3,2.8,2.5,4.2c1.4,1.7,3.2,3.1,5.2,4.1c0.7,0.3,1.7,0.7,2.7,0.8l0.1,0c0.4,0,0.8-0.1,1.1-0.4
						c0.2-0.2,0.4-0.5,0.7-0.7c0.2-0.2,0.3-0.3,0.5-0.5c0.2-0.3,0.2-0.4,0-0.6l-2-2c-0.2-0.2-0.3-0.2-0.5,0l-1.2,1.2
						c-0.3,0.3-0.6,0.4-0.8,0.4c-0.2,0-0.4,0-0.5-0.1c-0.2-0.1-0.3-0.2-0.4-0.2c-0.2-0.1-0.4-0.2-0.5-0.3c-1.2-0.8-2.3-1.8-3.3-3
						c-0.6-0.7-1-1.3-1.2-2c-0.2-0.5-0.1-1,0.3-1.3c0.3-0.3,0.6-0.5,0.8-0.8l0.4-0.4c0.2-0.2,0.2-0.2,0.2-0.3c0-0.1-0.1-0.2-0.2-0.3
						L1202,30c-0.2-0.2-0.4-0.4-0.6-0.6c-0.2-0.2-0.3-0.2-0.5,0l-1.2,1.2C1199.5,30.9,1199.4,31.2,1199.3,31.5z"/>
				</g>
			</g>
		</g>
	</g>
</g>
</svg>
