<svg id="Слой_1" xmlns="http://www.w3.org/2000/svg" viewBox="0 0 122 94">
  <style>.st0{fill:#fff}</style>
  <g>
    <g>
      <g>
        <g transform="translate(-105 -2248)">
          <path id="gw7ua" class="st0"
                d="M224.4,2340.2h0.6c0.4,0,0.7-0.1,0.9-0.2c0.2-0.2,0.3-0.4,0.3-0.7c0-0.3-0.1-0.5-0.3-0.7 c-0.2-0.2-0.5-0.3-1-0.3h-0.5L224.4,2340.2z M224.4,2337.6h0.3c0.3,0,0.6-0.1,0.7-0.2c0.2-0.1,0.2-0.4,0.2-0.7 c0-0.3-0.1-0.5-0.2-0.6c-0.2-0.1-0.4-0.2-0.7-0.2h-0.3L224.4,2337.6z M223.5,2341v-6h0.9c0.4,0,0.7,0,1,0.1 c0.2,0.1,0.4,0.2,0.6,0.3c0.2,0.2,0.3,0.3,0.4,0.6c0.1,0.2,0.2,0.5,0.2,0.7c0,0.4-0.2,0.8-0.5,1.1c0.3,0.1,0.6,0.3,0.8,0.6 c0.2,0.3,0.3,0.6,0.3,0.9c0,0.5-0.2,0.9-0.5,1.2c-0.2,0.2-0.4,0.3-0.7,0.4c-0.3,0.1-0.7,0.1-1,0.1L223.5,2341z M218.5,2338.6 c0,0.5,0.1,0.9,0.3,1.1c0.3,0.3,0.6,0.5,1.1,0.5c0.5,0,0.8-0.2,1.1-0.5c0.2-0.2,0.3-0.6,0.3-1.1v-3.6h0.9v3.9 c0,0.6-0.2,1.2-0.6,1.6c-0.4,0.4-1,0.7-1.6,0.7c-0.6,0-1.2-0.2-1.6-0.7c-0.4-0.4-0.6-0.9-0.6-1.6v-3.9h0.9L218.5,2338.6z M215,2340.1h1.8v0.9h-2.7v-6h0.9V2340.1z M212.9,2336.4c-0.5-0.4-1.1-0.7-1.6-0.7c-0.6,0-1.2,0.2-1.6,0.7 c-0.4,0.4-0.6,1-0.6,1.6c0,0.6,0.2,1.2,0.6,1.6c0.4,0.4,0.9,0.7,1.6,0.7c0.3,0,0.6-0.1,0.8-0.2c0.1-0.1,0.3-0.1,0.4-0.2 c0.1-0.1,0.3-0.2,0.4-0.3v1.1c-0.5,0.3-1.1,0.4-1.6,0.4c-0.9,0-1.6-0.3-2.2-0.9c-0.6-0.6-0.9-1.4-0.9-2.2c0-0.8,0.3-1.5,0.8-2.1 c0.6-0.7,1.4-1.1,2.4-1.1c0.6,0,1.1,0.2,1.6,0.4L212.9,2336.4z M204.8,2335.8h-2.4v1.4h2.3v0.9h-2.3v2h2.4v0.9h-3.3v-6h3.3 V2335.8z M199.4,2335h1.2l-2.7,2.7l2.7,3.3h-1.2l-2.2-2.7l-0.2,0.2v2.5h-0.9v-6h0.9v2.4L199.4,2335z M189.6,2338 c0,0.7,0.2,1.2,0.7,1.6c0.4,0.4,1,0.6,1.5,0.6c0.6,0,1.2-0.2,1.6-0.7c0.4-0.4,0.7-1,0.7-1.6c0-0.6-0.2-1.2-0.6-1.6 c-0.4-0.4-1-0.7-1.6-0.7c-0.6,0-1.2,0.2-1.6,0.7C189.8,2336.8,189.6,2337.3,189.6,2338L189.6,2338z M189.6,2335.8 c0.6-0.6,1.4-0.9,2.2-0.9c0.9,0,1.6,0.3,2.2,0.9c0.6,0.6,0.9,1.4,0.9,2.2c0,0.9-0.3,1.6-0.9,2.2c-0.6,0.6-1.4,0.9-2.3,0.9 c-0.8,0-1.5-0.3-2.1-0.8c-0.7-0.6-1-1.4-1-2.3C188.7,2337.1,189,2336.4,189.6,2335.8L189.6,2335.8z M186.3,2338.7L186.3,2338.7 L186.3,2338.7z M185.4,2336.6l-0.9,2.1h1.8L185.4,2336.6z M184,2339.5l-0.7,1.5h-1l3-6.4l2.9,6.4h-1l-0.6-1.5H184z M179.5,2337.7c0.9,0,1.3-0.3,1.3-1c0-0.6-0.4-0.9-1.3-0.9h-0.3v1.9L179.5,2337.7z M182.2,2341h-1.1l-1.7-2.5h-0.2v2.5h-0.9v-6 h1.1c0.8,0,1.4,0.1,1.7,0.4c0.4,0.3,0.6,0.8,0.6,1.3c0,0.4-0.1,0.8-0.4,1.1c-0.2,0.3-0.6,0.5-1,0.6L182.2,2341z M175.5,2338.7 L175.5,2338.7L175.5,2338.7z M174.6,2336.6l-0.9,2.1h1.8L174.6,2336.6z M173.3,2339.5l-0.7,1.5h-1l3-6.4l2.9,6.4h-1l-0.6-1.5 H173.3z M170.3,2335h1.2l-2.7,2.7l2.7,3.3h-1.2l-2.2-2.7l-0.2,0.2v2.5H167v-6h0.9v2.4L170.3,2335z M160.6,2336.9 c0.1-0.1,0.2-0.2,0.3-0.3c0.1-0.1,0.1-0.1,0.2-0.2c0.1-0.1,0.1-0.2,0.1-0.4c0-0.1-0.1-0.3-0.2-0.4c-0.1-0.1-0.3-0.2-0.4-0.1 c-0.2,0-0.3,0-0.4,0.1c-0.1,0.1-0.2,0.2-0.2,0.4c0,0.2,0.1,0.3,0.2,0.5l0.2,0.3C160.5,2337,160.6,2337,160.6,2336.9 L160.6,2336.9z M160.3,2338.2c-0.4,0.3-0.6,0.5-0.8,0.6c-0.1,0.1-0.2,0.3-0.2,0.5c0,0.3,0.1,0.5,0.3,0.7 c0.2,0.2,0.4,0.3,0.7,0.3c0.4,0,0.8-0.2,1.2-0.7L160.3,2338.2L160.3,2338.2z M162.2,2339L162.2,2339c0.2-0.2,0.3-0.3,0.4-0.4 c0.1-0.1,0.2-0.2,0.3-0.4l0.6,0.6c-0.1,0.1-0.2,0.2-0.3,0.4c-0.1,0.1-0.3,0.3-0.4,0.5l1.1,1.4h-1.1l-0.6-0.7 c-0.6,0.6-1.1,0.9-1.7,0.9c-0.5,0-1-0.2-1.4-0.5c-0.4-0.3-0.6-0.8-0.5-1.3c0-0.6,0.3-1.1,0.9-1.5l0.4-0.3l0.1-0.1 c-0.4-0.4-0.6-0.8-0.6-1.3c0-0.4,0.1-0.7,0.4-1c0.3-0.3,0.6-0.4,1.1-0.4c0.4,0,0.8,0.1,1,0.4c0.3,0.2,0.4,0.6,0.4,0.9 c0,0.3-0.1,0.5-0.2,0.7c-0.1,0.2-0.4,0.5-0.8,0.8L162.2,2339z M154.1,2335.8v5.2h-0.9v-5.2h-1.4v-0.9h3.7v0.9H154.1z M145.6,2341v-6.4l4.4,4.6v-4.2h0.9v6.4l-4.4-4.6v4.2H145.6z M142.9,2338.7L142.9,2338.7L142.9,2338.7z M142,2336.6l-0.9,2.1 h1.8L142,2336.6z M140.7,2339.5l-0.7,1.5h-1l3-6.4l2.9,6.4h-1l-0.6-1.5H140.7z M135.8,2337.8h0.3c0.9,0,1.3-0.3,1.3-1 c0-0.6-0.4-0.9-1.3-0.9h-0.3V2337.8z M138.8,2341h-1.1l-1.7-2.5h-0.2v2.5h-0.9v-6h1.1c0.8,0,1.4,0.1,1.7,0.4 c0.4,0.3,0.6,0.8,0.6,1.3c0,0.4-0.1,0.8-0.4,1.1c-0.2,0.3-0.6,0.5-1,0.6L138.8,2341z M129.9,2338.6c0,0.5,0.1,0.9,0.3,1.1 c0.3,0.3,0.6,0.5,1.1,0.5c0.5,0,0.8-0.2,1.1-0.5c0.2-0.2,0.3-0.6,0.3-1.1v-3.6h0.9v3.9c0,0.6-0.2,1.2-0.6,1.6 c-0.4,0.4-1,0.7-1.6,0.7c-0.6,0-1.2-0.2-1.6-0.7c-0.4-0.4-0.6-0.9-0.6-1.6v-3.9h0.9L129.9,2338.6z M126.2,2338.7l-0.9-2.1 l-0.9,2.1L126.2,2338.7L126.2,2338.7z M124,2339.5l-0.7,1.5h-1l3-6.4l2.9,6.4h-1l-0.6-1.5H124z M120.9,2341H120v-5.2h-1.4v-0.9 h3.7v0.9h-1.4L120.9,2341z M118,2335.9l-0.7,0.4c-0.1-0.2-0.3-0.4-0.4-0.5c-0.2-0.1-0.3-0.1-0.5-0.1c-0.2,0-0.5,0.1-0.6,0.2 c-0.2,0.1-0.3,0.3-0.3,0.5c0,0.3,0.2,0.5,0.7,0.7l0.6,0.2c0.5,0.2,0.8,0.4,1.1,0.7c0.2,0.3,0.3,0.6,0.3,1c0,0.6-0.2,1-0.6,1.4 c-0.4,0.4-0.8,0.5-1.4,0.5c-0.5,0-1-0.2-1.3-0.5c-0.3-0.3-0.5-0.7-0.6-1.3l0.9-0.2c0,0.4,0.1,0.6,0.2,0.7 c0.2,0.3,0.5,0.4,0.8,0.4c0.3,0,0.5-0.1,0.7-0.3c0.2-0.2,0.3-0.5,0.3-0.7c0-0.1,0-0.2,0-0.3c0-0.1-0.1-0.2-0.2-0.3 c-0.1-0.1-0.2-0.2-0.3-0.2c-0.1-0.1-0.2-0.1-0.4-0.2l-0.6-0.2c-0.8-0.3-1.2-0.9-1.2-1.5c0-0.5,0.2-0.8,0.5-1.1 c0.3-0.3,0.8-0.5,1.3-0.5C117,2334.9,117.6,2335.2,118,2335.9L118,2335.9z M110.9,2335.8v1.4h2.3v0.9h-2.3v2h2.4v0.9H110v-6h3.3 v0.9H110.9z M106.4,2337.7c0.9,0,1.3-0.3,1.3-1c0-0.6-0.4-0.9-1.3-0.9h-0.3v1.9L106.4,2337.7z M109.1,2341H108l-1.7-2.5h-0.2 v2.5h-0.9v-6h1.1c0.8,0,1.4,0.1,1.7,0.4c0.4,0.3,0.6,0.8,0.6,1.3c0,0.4-0.1,0.8-0.4,1.1c-0.2,0.3-0.6,0.5-1,0.6L109.1,2341z"/>
        </g>
      </g>
      <g>
        <g transform="translate(-105 -2248)">
          <path id="gw7ub" class="st0"
                d="M160.7,2280.8c0.2,3.5,1.2,6.9,3.1,9.3c1.7,2.2,4.1,3.7,7.3,3.8c2.1,0,3.8,0,4.4,0h2.6 c1.9-1.9,4-4.1,5.9-3.8c0.6,0.1,1.4,0.6,2.2,1.2c0.8,0.6,1.6,1.5,2.3,2.3c0.1,0.1,0.2,0.2,0.3,0.3c4.2-0.2,5.6-0.8,6.8-1.3 c1-0.4,1.8-0.7,2.6-0.7c1.2,0,2.4,0.5,3.5,1c1,0.4,1.9,0.8,3,1c0.7,0.1,2.1,0,3.5,0c0.4,0,2,0,4.8,0c0.3,0,0.5,0.3,0.5,0.6 c0,0.3-0.2,0.5-0.5,0.5h-2.9c-3.3,0-4.8,0.1-5.5,0c-1.2-0.1-2.2-0.6-3.3-1c-1.1-0.4-2.1-0.9-3.1-0.9c-0.6,0-1.3,0.3-2.2,0.6 c-1.3,0.5-2.8,1.1-5.1,1.3c-1.1,0.2-1,0.3-0.9,0.4c1.8,2.1,2.3,2.6,6.7,2.6c4.6,0,8.1,0,10.3-0.1c0.3,0,0.5,0.2,0.5,0.5 c0,0,0,0,0,0c0,0.3-0.2,0.5-0.5,0.6c-2.3,0.1-5.7,0.1-10.3,0.1c-5,0-5.5-0.6-7.6-3c-0.5-0.6-1-1.2-1.5-1.7 c-0.7-0.8-1.4-1.5-2.2-2.2c-0.7-0.5-1.3-0.9-1.7-1c-1.4-0.2-3.3,1.8-5,3.5c-0.7,0.8-1.4,1.5-2,1.9c-4.4,3.4-7.4,2.4-10.8,1.2 c-1.6-0.6-3.4-1.1-5.4-1.2c-1.7-0.1-3.4,0.3-5.3,0.9c-2.6,0.7-5.8,1.5-10.4,1.5h-19.9c-0.3,0-0.5-0.2-0.5-0.5s0.2-0.5,0.5-0.5 l19.9,0c4.4,0,7.5-0.8,10.1-1.5c2.1-0.5,3.8-1,5.7-0.9c2.2,0.1,4,0.7,5.6,1.3c3.1,1,5.9,2,9.8-1.1c0.3-0.2,0.6-0.5,0.8-0.7 c-3.2,0-5.3,0-6,0h-6.7c-3.6,0-5.8-1.2-7.7-2.2c-1.2-0.6-2.2-1.2-3.3-1.2c-1.6,0-3.4,1-5.2,2.1c-2.1,1.2-4.2,2.5-6.6,2.4 c-0.8,0-1.4-0.2-2-0.5c-0.7-0.3-1.6-0.6-3.4-0.7c-1.5-0.1-3.5,0-5.9,0c-0.9,0-3.6,0-8,0c-0.3,0-0.5-0.2-0.5-0.5c0,0,0,0,0,0 c0-0.3,0.2-0.5,0.5-0.5c4.4,0,7.1,0,8,0c2.5,0,4.4,0,6,0c1.9,0.1,2.9,0.4,3.8,0.8c0.5,0.2,1,0.4,1.7,0.4c2.1,0,4.1-1.1,6-2.3 c1.9-1.1,3.8-2.2,5.7-2.2c0.6,0,1.1,0.1,1.6,0.3c4.8-0.2,4.7-3.2,4.6-8.9c0-0.3,0-0.7,0-1.1c0-0.3,0-0.5,0-0.8 c0-3.8,0.1-8.5,1.3-14.1c-0.2-0.8-0.5-1.5-0.7-2.3l-0.1,0.2c-0.4-0.2-1.3,0-2.1,0.2c-1.3,0.4-2.5,1.2-3.1,1.6v8 c0,0.9,0,3.4-0.1,5.7c0,1.8-0.1,3.4-0.1,3.9c0,2.3-0.2,3.9-0.6,5c-0.5,1.2-1.2,1.8-2,2c-1.9,0.5-3.2-0.8-4.7-2.2 c-1.3-1.2-2.6-2.5-4.3-2.5c-1.7,0-3,1.1-4.3,2.1c-0.9,0.7-1.8,1.5-2.9,1.9c-0.6,0.3-1.4,0.5-2.3,0.7c-0.9,0.2-1.9,0.3-2.9,0.4 c-0.9,0.1-1.7,0.1-2.6,0.2c-0.5,0-1.5,0.1-3,0.1c-0.3,0-0.5-0.2-0.5-0.5c0,0,0,0,0,0c0-0.3,0.2-0.5,0.5-0.5c1.5,0,2.5,0,3-0.1 c0.8,0,1.7-0.1,2.5-0.2c0.9-0.1,1.9-0.2,2.8-0.4c0.8-0.2,1.5-0.4,2.1-0.6c0.8-0.4,1.6-0.9,2.3-1.5l-18.6,0 c-0.3,0-0.5-0.2-0.6-0.5c0-0.3,0.2-0.5,0.5-0.6c0,0,0,0,0,0l20,0c1.1-0.8,2.3-1.5,3.9-1.5c1.4,0,2.6,0.6,3.7,1.5 c1.8,0.1,2.8-0.3,3.3-1.2c0.5-1,0.6-2.6,0.6-4.8l-0.1-15.3c-2.6,0.4-2.8,1.1-3.3,2.1c0,2.1,0,4,0.1,5.7c0,1.2,0.1,2.2,0.1,3.1 c0,5.3-0.8,7.7-6.2,7.7l-16.2-0.1c-0.3,0-0.5-0.2-0.5-0.5c0-0.1,0.1-0.3,0.2-0.4c0.1-0.1,0.2-0.2,0.4-0.2l16.2,0.1 c4.5,0,5.1-2.1,5.1-6.7c0-1,0-2-0.1-3c-0.1-1.7-0.1-3.6-0.1-5.8c0-0.1,0-0.1,0.1-0.2c0.8-1.7,0.9-2.5,0.9-2.5 c0.1-0.3,0.3-0.4,0.6-0.4l2.8,0l0-3.1c0-0.1,0.1-0.3,0.2-0.4c0.7-0.6,1.4-1,2.1-1.2c0.7-0.3,1.5-0.4,2-0.3 c0.6,0.1,1.2,0.6,1.6,1.1c0.1,0.1,0.2,0.2,0.3,0.3c0.1,0.1,0.2,0.2,0.2,0.4v2.9c0.2-0.1,0.4-0.1,0.5-0.2 c0.8-0.3,1.6-0.4,2.3-0.4c-0.3-1.2-0.5-2.5-0.7-3.7c-0.4-3.5-0.1-6.9,1.2-10.6c0.1-0.2,0.2-0.3,0.3-0.3c1.4,0,2.6,0.2,3.5,0.5 c1,0.4,1.8,0.9,2.5,1.7c1.5,1.7,2.4,3.9,2.8,6.3c0.5,2.9,0.3,6.1-0.2,8.7c0.3,1,0.4,2,0.6,3c0.6,0.1,1.2,0.1,1.7,0.2 c0.5,0.1,0.9,0.2,1.4,0.3l0-2.3c0-3.5,0-6.6,0-8.6c0,0,0-0.1,0-0.2c0.1-0.3,0.4-0.5,0.7-0.4c2,0.5,3.4,1.7,4.3,3.5 c0.8,1.7,1,4,0.8,6.9c0.4,0.5,0.7,1,0.9,1.6c0.2,0.7,0.3,1.5,0.4,2.3c0.1,1.8,0.1,3.6,0.1,5.4c0,1.1,0,2.1,0,3.2 c0,0.7,0,1.2,0.2,1.5c0.1,0.2,0.4,0.3,0.9,0.4c0.1-0.4,0.2-0.8,0.3-1.2c0.2-1.2,0.3-2.3,0.3-3.4c0.1-2.7,0-6.5,0-11.1 c0-3.4-0.1-7.1-0.1-11.2c0-0.2,0.1-0.4,0.3-0.5c1.4-0.6,2.1-0.9,2.1-0.9c1.3,0.5,1.9,1.1,2.3,1.7c0.4,0.7,0.6,1.4,0.5,2.2l0,1.3 c0.7,0.9,1.1,1.7,1.4,2.5c0.3,0.9,0.4,1.7,0.3,2.5l-0.1,2.5l1.3,1.9c0.2,0.4,0.3,1.3,0.2,2.7l0.3,7.6c0.6,1.3,1.2,2.4,2.1,3.4 h14.8c0.3,0,0.5,0.2,0.5,0.5s-0.2,0.5-0.5,0.5l-13.8,0c0.4,0.3,0.8,0.7,1.3,0.9c2.1,1.3,4.9,1.9,8.9,1.9c2.6,0,5.7,0,9.4,0 c0.3,0,0.5,0.2,0.5,0.5c0,0,0,0,0,0c0,0.3-0.2,0.5-0.5,0.5c-3.7,0-6.8,0-9.5,0c-4.2,0-7.2-0.7-9.5-2.1c-2.3-1.4-3.8-3.4-4.9-6 c0-0.1,0-0.1-0.1-0.2l-0.2-7.7c0-1.3,0-2-0.1-2.2l-1.3-2c-0.1-0.1-0.1-0.2-0.1-0.3l0.1-2.7c0.1-0.7,0.1-1.3-0.2-2 c-0.3-0.7-0.7-1.5-1.4-2.3c-0.1-0.1-0.1-0.2-0.1-0.3l0.1-1.5c0.1-0.6-0.1-1.1-0.3-1.6c-0.3-0.4-0.7-0.8-1.2-1.2 c-0.3,0.1-0.8,0.3-1.5,0.6c0,3.9,0,7.6,0,10.8c0,4.6,0.1,8.4,0,11.1c0,1.1-0.1,2.3-0.3,3.6c-0.2,1-0.4,2-0.8,3 c-0.6,1.6-1.6,3-2.9,3.8c-1.2,0.8-2.7,1.2-4.4,1c-1.2-0.1-2.3-0.5-3.1-1.2c-0.8-0.6-1.3-1.5-1.6-2.7c-0.3-1.7-0.3-4-0.3-6.5 c0-5.5,0.1-12.4-3.3-18.7c-0.5-1-1.1-2.1-1.7-3.1c-1.3-2.4-2.6-4.6-3.4-6.5c-0.8,3-1,5.9-0.7,8.7c0.4,3.3,1.4,6.7,2.7,10.2 c0.5,1.3,0.9,3,1.4,4.9c1.6,6.8,3.9,16,12.3,16c1.1,0,2.1-0.3,3-0.6c0.9-0.4,1.7-0.9,2.5-1.3c0.5-0.3,1-0.5,1.5-0.8 c0.7-0.4,1.4-0.8,2.1-1c3-1,4.2-0.1,5.9,1.1c1.1,0.8,2.5,1.7,4.8,2.1c2.5,0.4,6.4,0.6,11.8,0.5c0.3,0,0.5,0.2,0.5,0.5 c0,0,0,0,0,0c0,0.3-0.2,0.5-0.5,0.5c-5.5,0-9.5-0.1-12-0.6c-2.6-0.4-4-1.5-5.3-2.3c-1.4-1-2.5-1.7-4.9-0.9 c-0.6,0.2-1.2,0.5-1.9,0.9c-0.4,0.2-0.9,0.5-1.4,0.7c-0.8,0.5-1.7,1-2.7,1.4c-1,0.4-2.2,0.7-3.4,0.7c-9.3,0-11.7-9.7-13.4-16.8 c-0.4-1.9-0.8-3.5-1.3-4.8c-0.2-0.5-0.3-0.9-0.5-1.4C160.7,2273,160.7,2277.3,160.7,2280.8L160.7,2280.8z M166.7,2293.8 c-1.5-0.7-2.8-1.8-3.8-3.2c-0.9-1.2-1.7-2.7-2.2-4.2c-0.2,2.9-1,4.6-3.8,5.2l0.3,0.1c1.7,0.9,3.9,2.1,7.2,2.1L166.7,2293.8z M148.3,2287.2c1.3,1.2,2.4,2.3,3.7,1.9c0.5-0.1,0.9-0.6,1.2-1.4c0.4-1,0.6-2.4,0.6-4.6c0-0.5,0-2.1,0.1-4 c0-2.3,0.1-4.8,0.1-5.6v-8.2c0-0.2,0.1-0.3,0.2-0.4c0.3-0.3,1.1-0.8,2-1.2v-1.5c0-0.6,0-1.1,0-1.7l-0.1-0.2 c-0.4-0.3-0.7-0.7-1-0.8c-0.4-0.1-0.9,0-1.5,0.2c-0.6,0.2-1.1,0.5-1.6,0.9l0.1,19.2c0,2.3-0.1,4.1-0.7,5.3 c-0.6,1-1.5,1.7-3.1,1.8L148.3,2287.2L148.3,2287.2z M167.2,2259.2c0.6,1.1,1.2,2.3,1.6,3.6c0.2-2,0.2-4.1-0.1-6.1 c-0.4-2.2-1.1-4.3-2.5-5.8c-0.6-0.6-1.3-1.1-2.1-1.4c-0.6-0.2-1.4-0.4-2.2-0.5c0.8,1.9,2.2,4.3,3.6,7 C166.1,2257.1,166.6,2258.1,167.2,2259.2L167.2,2259.2z M170.7,2282.1h0.2c0.3,0,0.6,0,0.9-0.1c0.7-0.1,1.6-0.6,1.6-1.9 c0-3.3,0-6.8,0-10.1c-0.5-0.2-1.1-0.3-1.6-0.4c-0.4-0.1-0.9-0.2-1.4-0.2c0.4,3.2,0.4,6.3,0.4,9.1 C170.7,2279.6,170.7,2280.9,170.7,2282.1L170.7,2282.1z M171,2284.8c0.2,0.9,0.6,1.6,1.2,2.1c0.7,0.6,1.6,0.9,2.5,0.9 c1.5,0.1,2.7-0.2,3.7-0.9l0,0c1.1-0.7,1.9-1.9,2.5-3.3c0.1-0.2,0.1-0.3,0.2-0.5c-0.7-0.1-1.2-0.4-1.5-0.9 c-0.3-0.5-0.4-1.2-0.4-2c0-1.1,0-2.1,0-3.2c0-1.8,0.1-3.5-0.1-5.3c-0.1-0.8-0.2-1.5-0.4-2.1c-0.2-0.6-0.4-1-0.8-1.4 c-0.1-0.1-0.2-0.3-0.1-0.4c0.3-2.8,0.1-5-0.7-6.6c-0.6-1.3-1.5-2.2-2.9-2.6c0,2,0,4.8,0,8c0,4.2,0,9.1,0,13.5c0,2-1.3,2.7-2.4,3 c-0.4,0.1-0.8,0.1-1.1,0.1h-0.1C170.8,2283.7,170.9,2284.3,171,2284.8L171,2284.8z"/>
        </g>
      </g>
      <g>
        <g transform="translate(-105 -2248)">
          <path id="gw7uc" class="st0"
                d="M124,2315.2c-0.7-0.7-1.3-1.2-2.1-1.5s-1.6-0.5-2.5-0.5c-0.7,0-1.4,0.1-2.1,0.4 c-1.3,0.6-2.4,1.7-3,3c-0.3,0.6-0.4,1.4-0.4,2.2c0,0.6,0.1,1.2,0.2,1.7c0.1,0.5,0.4,1,0.7,1.5c0.6,0.8,1.2,1.4,2,1.8 c0.8,0.4,1.7,0.6,2.6,0.6c0.9,0,1.7-0.2,2.4-0.5c0.7-0.4,1.4-0.9,2-1.6v2.1c-0.7,0.5-1.4,0.9-2.2,1.1c-0.8,0.3-1.6,0.4-2.4,0.4 c-0.7,0-1.4-0.1-2.1-0.3c-0.7-0.2-1.3-0.5-1.9-0.9c-1-0.6-1.7-1.5-2.3-2.5c-0.5-1-0.8-2.1-0.8-3.3c0-1,0.2-2,0.5-2.8 c0.4-0.9,0.9-1.7,1.6-2.3c0.7-0.6,1.5-1.1,2.3-1.5c0.8-0.3,1.8-0.5,2.8-0.5c0.8,0,1.6,0.1,2.3,0.4c0.7,0.2,1.5,0.6,2.2,1.1 V2315.2z M127.7,2325.5V2312h1.6v13.5H127.7z M136,2313.5h-3.9v-1.5h9.3v1.5h-3.8v11.9H136V2313.5z M148,2325.5v-6.2l-4.6-7.3 h1.9l3.6,5.8l3.6-5.8h1.9l-4.6,7.3v6.2H148z M165.7,2326l-5.8-14h1.8l4,10.3l4-10.3h1.8L165.7,2326z M182.2,2323.9 c0.7-0.3,1.3-0.7,1.8-1.2c0.5-0.5,0.9-1.1,1.2-1.8c0.3-0.7,0.4-1.4,0.4-2.1c0-0.8-0.1-1.5-0.4-2.2c-0.3-0.7-0.7-1.3-1.2-1.8 c-0.5-0.5-1.1-0.9-1.8-1.2c-0.7-0.3-1.4-0.4-2.1-0.4c-0.7,0-1.5,0.1-2.2,0.4c-0.7,0.3-1.3,0.7-1.8,1.2c-0.5,0.5-0.9,1.1-1.2,1.8 c-0.3,0.7-0.4,1.4-0.4,2.1c0,0.7,0.1,1.4,0.4,2.1c0.3,0.7,0.7,1.3,1.2,1.8c0.5,0.5,1.1,0.9,1.8,1.2c0.7,0.3,1.4,0.4,2.1,0.4 C180.8,2324.3,181.6,2324.2,182.2,2323.9z M186.8,2321.5c-0.4,0.9-0.9,1.6-1.6,2.3c-0.7,0.7-1.5,1.2-2.4,1.5 c-0.9,0.4-1.8,0.5-2.8,0.5c-0.9,0-1.9-0.2-2.8-0.5c-0.9-0.4-1.7-0.9-2.4-1.5c-0.7-0.7-1.2-1.4-1.6-2.3c-0.4-0.9-0.5-1.8-0.5-2.7 c0-1,0.2-1.9,0.5-2.7c0.4-0.9,0.9-1.6,1.6-2.3c0.7-0.7,1.5-1.2,2.3-1.5c0.9-0.4,1.8-0.5,2.8-0.5c1,0,1.9,0.2,2.8,0.5 c0.9,0.3,1.7,0.9,2.4,1.5c0.7,0.6,1.2,1.4,1.6,2.3c0.4,0.9,0.6,1.8,0.6,2.7C187.4,2319.7,187.2,2320.6,186.8,2321.5z M191,2312 h1.6v13.5H191V2312z M208,2315.2c-0.7-0.7-1.3-1.2-2.1-1.5s-1.6-0.5-2.5-0.5c-0.7,0-1.4,0.1-2.1,0.4c-1.3,0.6-2.4,1.7-3,3 c-0.3,0.6-0.4,1.4-0.4,2.2c0,0.6,0.1,1.2,0.2,1.7c0.1,0.5,0.4,1,0.7,1.5c0.6,0.8,1.2,1.4,2,1.8c0.8,0.4,1.7,0.6,2.6,0.6 c0.9,0,1.7-0.2,2.4-0.5c0.7-0.4,1.4-0.9,2-1.6v2.1c-0.7,0.5-1.4,0.9-2.2,1.1c-0.8,0.2-1.6,0.4-2.4,0.4c-0.7,0-1.4-0.1-2.1-0.3 c-0.7-0.2-1.3-0.5-1.9-0.9c-1-0.7-1.7-1.5-2.3-2.5c-0.5-1-0.8-2.1-0.8-3.3c0-1,0.2-2,0.5-2.8c0.4-0.9,0.9-1.7,1.6-2.3 c0.7-0.6,1.5-1.1,2.3-1.5c0.8-0.3,1.8-0.5,2.7-0.5c0.8,0,1.6,0.1,2.3,0.4c0.7,0.2,1.5,0.6,2.2,1.1V2315.2z M211.7,2312h7.2v1.5 h-5.6v3.9h5.6v1.5h-5.6v5.2h5.6v1.5h-7.2V2312z"/>
        </g>
      </g>
    </g>
  </g>
</svg>
