<svg xmlns="http://www.w3.org/2000/svg" viewBox="0 0 335 125">
  <g>
    <g>
      <path
        d="M1.8,91.6v-36h18.9c6.8,0,10.4,4.4,10.4,9.2c0,4.5-2.8,7.5-6.2,8.2c3.8,0.6,6.9,4.3,6.9,8.8c0,5.4-3.6,9.7-10.5,9.7H1.8z M23.3,66.2c0-2.3-1.6-3.9-4.2-3.9H9.5v7.8h9.6C21.6,70.1,23.3,68.5,23.3,66.2z M24,80.9c0-2.3-1.6-4.2-4.6-4.2H9.5V85h9.9 C22.2,85,24,83.4,24,80.9z"/>
      <path d="M37.5,91.6v-36h7.7v29.2h15.2v6.7H37.5z"/>
      <path d="M90.5,91.6l-2.2-6.1H72.9l-2.3,6.1h-8.7l13.9-36h9.6l13.9,36H90.5z M80.6,63.3L75,78.8h11.2L80.6,63.3z"/>
      <path
        d="M100.9,73.7c0-11.1,8.4-18.6,19.1-18.6c7.9,0,12.5,4.3,15,8.8l-6.6,3.2c-1.5-2.9-4.7-5.2-8.5-5.2c-6.5,0-11.3,5-11.3,11.8 c0,6.8,4.7,11.8,11.3,11.8c3.7,0,7-2.3,8.5-5.2l6.6,3.2c-2.6,4.5-7.1,8.8-15,8.8C109.2,92.3,100.9,84.7,100.9,73.7z"/>
      <path d="M161,91.6l-10.9-14.4l-2.8,3.3v11.1h-7.7v-36h7.7v16.1L160,55.7h9.4l-14.3,16.9l15.3,19.1H161z"/>
      <path
        d="M171.5,86.6l4.2-5.8c2.5,2.6,6.5,4.9,11.4,4.9c4.2,0,6.3-1.9,6.3-4c0-6.4-20.7-2-20.7-15.5c0-6,5.2-10.9,13.6-10.9 c5.7,0,10.5,1.7,14,5l-4.3,5.6c-2.9-2.7-6.8-3.9-10.5-3.9c-3.3,0-5.1,1.5-5.1,3.6c0,5.7,20.6,1.9,20.6,15.3 c0,6.6-4.7,11.5-14.4,11.5C179.8,92.3,174.8,90,171.5,86.6z"/>
      <path d="M237.5,91.6V66.5l-10.1,25.2H224l-10.1-25.2v25.2h-7.7v-36H217l8.7,21.7l8.7-21.7h10.8v36H237.5z"/>
      <path d="M252.3,91.6v-36h7.7v36H252.3z"/>
      <path d="M275.4,91.6V62.4h-10.5v-6.7h28.7v6.7h-10.5v29.2H275.4z"/>
      <path d="M323.1,91.6V76.5h-17v15.1h-7.7v-36h7.7v14.1h17V55.7h7.7v36H323.1z"/>
    </g>
    <g>
      <path
        d="M196.5,118.3l1.8-2.5c1.1,1.1,2.8,2.1,4.9,2.1c1.8,0,2.7-0.8,2.7-1.7c0-2.7-8.9-0.9-8.9-6.7c0-2.6,2.2-4.7,5.9-4.7 c2.5,0,4.5,0.7,6,2.2l-1.8,2.4c-1.3-1.2-2.9-1.7-4.5-1.7c-1.4,0-2.2,0.6-2.2,1.6c0,2.5,8.9,0.8,8.9,6.6c0,2.8-2,5-6.2,5 C200.1,120.7,198,119.7,196.5,118.3z"/>
      <path d="M225.5,120.5v-12.6h-4.5V105h12.3v2.9h-4.5v12.6H225.5z"/>
      <path
        d="M245.8,114.3V105h3.3v9.2c0,2.2,1.3,3.6,3.6,3.6s3.6-1.5,3.6-3.6V105h3.4v9.3c0,3.8-2.3,6.5-7,6.5 S245.8,118.1,245.8,114.3z"/>
      <path
        d="M273.2,120.5V105h6.1c4.8,0,8.2,3.1,8.2,7.7c0,4.7-3.4,7.7-8.2,7.7H273.2z M284.2,112.7c0-2.7-1.7-4.8-4.8-4.8h-2.8v9.7 h2.8C282.4,117.6,284.2,115.4,284.2,112.7z"/>
      <path d="M300.3,120.5V105h3.3v15.5H300.3z"/>
      <path
        d="M316.3,112.7c0-4.7,3.4-8,8.1-8c4.7,0,8.1,3.3,8.1,8c0,4.7-3.4,8-8.1,8C319.7,120.7,316.3,117.4,316.3,112.7z M329.1,112.7c0-2.9-1.9-5.1-4.7-5.1c-2.8,0-4.7,2.2-4.7,5.1c0,2.9,1.8,5.1,4.7,5.1C327.2,117.8,329.1,115.6,329.1,112.7z"/>
    </g>
    <g>
      <path
        d="M79.7,2L51.6,30.1c-0.6,0.6-0.8,1.4-0.7,2.1l0,13.7c0,1,0.8,1.7,1.7,1.7l13.5,0c0.8,0.3,1.8,0.1,2.4-0.6l28.1-28.1 c0.9-0.9,0.9-2.5,0-3.4L83.1,2C82.2,1,80.6,1,79.7,2z"/>
      <path
        d="M65.3,13.5l-4.7,4.7c-0.5,0.5-1.2,0.5-1.7,0L56,15.3c-0.5-0.5-0.5-1.2,0-1.7l4.7-4.7c0.5-0.5,1.2-0.5,1.7,0l2.9,2.9 C65.7,12.2,65.7,13,65.3,13.5z"/>
      <path
        d="M125.2,74.5l-4.4,4.4c-0.4,0.4-1,0.4-1.3,0L80.2,39.7c-0.4-0.4-0.4-1,0-1.3l4.4-4.4c0.4-0.4,1-0.4,1.3,0l39.3,39.3 C125.5,73.5,125.5,74.1,125.2,74.5z"/>
    </g>
  </g>
</svg>
