<svg xmlns="http://www.w3.org/2000/svg" viewBox="0 0 335 125">
    <path d="M1.8 91.6v-36h18.9c6.8 0 10.4 4.4 10.4 9.2 0 4.5-2.8 7.5-6.2 8.2 3.8.6 6.9 4.3 6.9 8.8 0 5.4-3.6 9.7-10.5 9.7H1.8zm21.5-25.4c0-2.3-1.6-3.9-4.2-3.9H9.5v7.8h9.6c2.5 0 4.2-1.6 4.2-3.9zm.7 14.7c0-2.3-1.6-4.2-4.6-4.2H9.5V85h9.9c2.8 0 4.6-1.6 4.6-4.1z"/>
    <path d="M37.5 91.6v-36h7.7v29.2h15.2v6.7H37.5z"/>
    <path d="M90.5 91.6l-2.2-6.1H72.9l-2.3 6.1h-8.7l13.9-36h9.6l13.9 36h-8.8zm-9.9-28.3L75 78.8h11.2l-5.6-15.5z"/>
    <path d="M100.9 73.7c0-11.1 8.4-18.6 19.1-18.6 7.9 0 12.5 4.3 15 8.8l-6.6 3.2c-1.5-2.9-4.7-5.2-8.5-5.2-6.5 0-11.3 5-11.3 11.8 0 6.8 4.7 11.8 11.3 11.8 3.7 0 7-2.3 8.5-5.2l6.6 3.2c-2.6 4.5-7.1 8.8-15 8.8-10.8 0-19.1-7.6-19.1-18.6z"/>
    <path d="M161 91.6l-10.9-14.4-2.8 3.3v11.1h-7.7v-36h7.7v16.1l12.7-16h9.4l-14.3 16.9 15.3 19.1H161z"/>
    <path d="M171.5 86.6l4.2-5.8c2.5 2.6 6.5 4.9 11.4 4.9 4.2 0 6.3-1.9 6.3-4 0-6.4-20.7-2-20.7-15.5 0-6 5.2-10.9 13.6-10.9 5.7 0 10.5 1.7 14 5l-4.3 5.6c-2.9-2.7-6.8-3.9-10.5-3.9-3.3 0-5.1 1.5-5.1 3.6 0 5.7 20.6 1.9 20.6 15.3 0 6.6-4.7 11.5-14.4 11.5-6.8-.1-11.8-2.4-15.1-5.8z"/>
    <path d="M237.5 91.6V66.5l-10.1 25.2H224l-10.1-25.2v25.2h-7.7v-36H217l8.7 21.7 8.7-21.7h10.8v36h-7.7z"/>
    <path d="M252.3 91.6v-36h7.7v36h-7.7z"/>
    <path d="M275.4 91.6V62.4h-10.5v-6.7h28.7v6.7h-10.5v29.2h-7.7z"/>
    <path d="M323.1 91.6V76.5h-17v15.1h-7.7v-36h7.7v14.1h17v-14h7.7v36h-7.7z"/>
    <g>
        <path d="M196.5 118.3l1.8-2.5c1.1 1.1 2.8 2.1 4.9 2.1 1.8 0 2.7-.8 2.7-1.7 0-2.7-8.9-.9-8.9-6.7 0-2.6 2.2-4.7 5.9-4.7 2.5 0 4.5.7 6 2.2l-1.8 2.4c-1.3-1.2-2.9-1.7-4.5-1.7-1.4 0-2.2.6-2.2 1.6 0 2.5 8.9.8 8.9 6.6 0 2.8-2 5-6.2 5-3-.2-5.1-1.2-6.6-2.6z"/>
        <path d="M225.5 120.5v-12.6H221V105h12.3v2.9h-4.5v12.6h-3.3z"/>
        <path d="M245.8 114.3V105h3.3v9.2c0 2.2 1.3 3.6 3.6 3.6s3.6-1.5 3.6-3.6V105h3.4v9.3c0 3.8-2.3 6.5-7 6.5s-6.9-2.7-6.9-6.5z"/>
        <path d="M273.2 120.5V105h6.1c4.8 0 8.2 3.1 8.2 7.7 0 4.7-3.4 7.7-8.2 7.7h-6.1zm11-7.8c0-2.7-1.7-4.8-4.8-4.8h-2.8v9.7h2.8c3 0 4.8-2.2 4.8-4.9z"/>
        <path d="M300.3 120.5V105h3.3v15.5h-3.3z"/>
        <path d="M316.3 112.7c0-4.7 3.4-8 8.1-8 4.7 0 8.1 3.3 8.1 8s-3.4 8-8.1 8c-4.7 0-8.1-3.3-8.1-8zm12.8 0c0-2.9-1.9-5.1-4.7-5.1-2.8 0-4.7 2.2-4.7 5.1 0 2.9 1.8 5.1 4.7 5.1 2.8 0 4.7-2.2 4.7-5.1z"/>
    </g>
    <g>
        <path d="M79.7 2L51.6 30.1c-.6.6-.8 1.4-.7 2.1v13.7c0 1 .8 1.7 1.7 1.7h13.5c.8.3 1.8.1 2.4-.6l28.1-28.1c.9-.9.9-2.5 0-3.4L83.1 2c-.9-1-2.5-1-3.4 0z"/>
        <path d="M65.3 13.5l-4.7 4.7c-.5.5-1.2.5-1.7 0L56 15.3c-.5-.5-.5-1.2 0-1.7l4.7-4.7c.5-.5 1.2-.5 1.7 0l2.9 2.9c.4.4.4 1.2 0 1.7z"/>
        <path d="M125.2 74.5l-4.4 4.4c-.4.4-1 .4-1.3 0L80.2 39.7c-.4-.4-.4-1 0-1.3l4.4-4.4c.4-.4 1-.4 1.3 0l39.3 39.3c.3.2.3.8 0 1.2z"/>
    </g>
</svg>
