<svg id="Слой_1" xmlns="http://www.w3.org/2000/svg" viewBox="0 0 122 94">
    <style>
        .st0{fill:#fff}
    </style>
    <g transform="translate(-105 -2248)">
        <path id="gw7ua" class="st0" d="M224.4 2340.2h.6c.4 0 .7-.1.9-.2.2-.2.3-.4.3-.7 0-.3-.1-.5-.3-.7-.2-.2-.5-.3-1-.3h-.5v1.9zm0-2.6h.3c.3 0 .6-.1.7-.2.2-.1.2-.4.2-.7 0-.3-.1-.5-.2-.6-.2-.1-.4-.2-.7-.2h-.3v1.7zm-.9 3.4v-6h.9c.4 0 .7 0 1 .1l.6.3c.2.2.3.3.4.6.1.2.2.5.2.7 0 .4-.2.8-.5 1.1.3.1.6.3.8.6.2.3.3.6.3.9 0 .5-.2.9-.5 1.2-.2.2-.4.3-.7.4-.3.1-.7.1-1 .1h-1.5zm-5-2.4c0 .5.1.9.3 1.1.3.3.6.5 1.1.5.5 0 .8-.2 1.1-.5.2-.2.3-.6.3-1.1v-3.6h.9v3.9c0 .6-.2 1.2-.6 1.6-.4.4-1 .7-1.6.7-.6 0-1.2-.2-1.6-.7-.4-.4-.6-.9-.6-1.6v-3.9h.9l-.2 3.6zm-3.5 1.5h1.8v.9h-2.7v-6h.9v5.1zm-2.1-3.7c-.5-.4-1.1-.7-1.6-.7-.6 0-1.2.2-1.6.7-.4.4-.6 1-.6 1.6 0 .6.2 1.2.6 1.6.4.4.9.7 1.6.7.3 0 .6-.1.8-.2.1-.1.3-.1.4-.2.1-.1.3-.2.4-.3v1.1c-.5.3-1.1.4-1.6.4-.9 0-1.6-.3-2.2-.9-.6-.6-.9-1.4-.9-2.2 0-.8.3-1.5.8-2.1.6-.7 1.4-1.1 2.4-1.1.6 0 1.1.2 1.6.4l-.1 1.2zm-8.1-.6h-2.4v1.4h2.3v.9h-2.3v2h2.4v.9h-3.3v-6h3.3v.8zm-5.4-.8h1.2l-2.7 2.7 2.7 3.3h-1.2l-2.2-2.7-.2.2v2.5h-.9v-6h.9v2.4l2.4-2.4zm-9.8 3c0 .7.2 1.2.7 1.6.4.4 1 .6 1.5.6.6 0 1.2-.2 1.6-.7.4-.4.7-1 .7-1.6 0-.6-.2-1.2-.6-1.6-.4-.4-1-.7-1.6-.7-.6 0-1.2.2-1.6.7-.5.5-.7 1-.7 1.7zm0-2.2c.6-.6 1.4-.9 2.2-.9.9 0 1.6.3 2.2.9.6.6.9 1.4.9 2.2 0 .9-.3 1.6-.9 2.2-.6.6-1.4.9-2.3.9-.8 0-1.5-.3-2.1-.8-.7-.6-1-1.4-1-2.3.1-.9.4-1.6 1-2.2zm-3.3 2.9zm-.9-2.1l-.9 2.1h1.8l-.9-2.1zm-1.4 2.9l-.7 1.5h-1l3-6.4 2.9 6.4h-1l-.6-1.5H184zm-4.5-1.8c.9 0 1.3-.3 1.3-1 0-.6-.4-.9-1.3-.9h-.3v1.9h.3zm2.7 3.3h-1.1l-1.7-2.5h-.2v2.5h-.9v-6h1.1c.8 0 1.4.1 1.7.4.4.3.6.8.6 1.3 0 .4-.1.8-.4 1.1-.2.3-.6.5-1 .6l1.9 2.6zm-6.7-2.3zm-.9-2.1l-.9 2.1h1.8l-.9-2.1zm-1.3 2.9l-.7 1.5h-1l3-6.4 2.9 6.4h-1l-.6-1.5h-2.6zm-3-4.5h1.2l-2.7 2.7 2.7 3.3h-1.2l-2.2-2.7-.2.2v2.5h-.9v-6h.9v2.4l2.4-2.4zm-9.7 1.9l.3-.3.2-.2c.1-.1.1-.2.1-.4 0-.1-.1-.3-.2-.4-.1-.1-.3-.2-.4-.1-.2 0-.3 0-.4.1-.1.1-.2.2-.2.4s.1.3.2.5l.2.3c.1.2.2.2.2.1zm-.3 1.3c-.4.3-.6.5-.8.6-.1.1-.2.3-.2.5 0 .3.1.5.3.7.2.2.4.3.7.3.4 0 .8-.2 1.2-.7l-1.2-1.4zm1.9.8l.4-.4c.1-.1.2-.2.3-.4l.6.6c-.1.1-.2.2-.3.4-.1.1-.3.3-.4.5l1.1 1.4h-1.1l-.6-.7c-.6.6-1.1.9-1.7.9-.5 0-1-.2-1.4-.5-.4-.3-.6-.8-.5-1.3 0-.6.3-1.1.9-1.5l.4-.3.1-.1c-.4-.4-.6-.8-.6-1.3 0-.4.1-.7.4-1 .3-.3.6-.4 1.1-.4.4 0 .8.1 1 .4.3.2.4.6.4.9 0 .3-.1.5-.2.7-.1.2-.4.5-.8.8l.9 1.3zm-8.1-3.2v5.2h-.9v-5.2h-1.4v-.9h3.7v.9h-1.4zm-8.5 5.2v-6.4l4.4 4.6v-4.2h.9v6.4l-4.4-4.6v4.2h-.9zm-2.7-2.3zm-.9-2.1l-.9 2.1h1.8l-.9-2.1zm-1.3 2.9l-.7 1.5h-1l3-6.4 2.9 6.4h-1l-.6-1.5h-2.6zm-4.9-1.7h.3c.9 0 1.3-.3 1.3-1 0-.6-.4-.9-1.3-.9h-.3v1.9zm3 3.2h-1.1l-1.7-2.5h-.2v2.5h-.9v-6h1.1c.8 0 1.4.1 1.7.4.4.3.6.8.6 1.3 0 .4-.1.8-.4 1.1-.2.3-.6.5-1 .6l1.9 2.6zm-8.9-2.4c0 .5.1.9.3 1.1.3.3.6.5 1.1.5.5 0 .8-.2 1.1-.5.2-.2.3-.6.3-1.1v-3.6h.9v3.9c0 .6-.2 1.2-.6 1.6-.4.4-1 .7-1.6.7-.6 0-1.2-.2-1.6-.7-.4-.4-.6-.9-.6-1.6v-3.9h.9l-.2 3.6zm-3.7.1l-.9-2.1-.9 2.1h1.8zm-2.2.8l-.7 1.5h-1l3-6.4 2.9 6.4h-1l-.6-1.5H124zm-3.1 1.5h-.9v-5.2h-1.4v-.9h3.7v.9h-1.4v5.2zm-2.9-5.1l-.7.4c-.1-.2-.3-.4-.4-.5-.2-.1-.3-.1-.5-.1s-.5.1-.6.2c-.2.1-.3.3-.3.5 0 .3.2.5.7.7l.6.2c.5.2.8.4 1.1.7.2.3.3.6.3 1 0 .6-.2 1-.6 1.4-.4.4-.8.5-1.4.5-.5 0-1-.2-1.3-.5-.3-.3-.5-.7-.6-1.3l.9-.2c0 .4.1.6.2.7.2.3.5.4.8.4.3 0 .5-.1.7-.3.2-.2.3-.5.3-.7v-.3c0-.1-.1-.2-.2-.3-.1-.1-.2-.2-.3-.2-.1-.1-.2-.1-.4-.2l-.6-.2c-.8-.3-1.2-.9-1.2-1.5 0-.5.2-.8.5-1.1.3-.3.8-.5 1.3-.5.7.2 1.3.5 1.7 1.2zm-7.1-.1v1.4h2.3v.9h-2.3v2h2.4v.9H110v-6h3.3v.9h-2.4zm-4.5 1.9c.9 0 1.3-.3 1.3-1 0-.6-.4-.9-1.3-.9h-.3v1.9h.3zm2.7 3.3H108l-1.7-2.5h-.2v2.5h-.9v-6h1.1c.8 0 1.4.1 1.7.4.4.3.6.8.6 1.3 0 .4-.1.8-.4 1.1-.2.3-.6.5-1 .6l1.9 2.6z"/>
    </g>
    <g transform="translate(-105 -2248)">
        <path id="gw7ub" class="st0" d="M160.7 2280.8c.2 3.5 1.2 6.9 3.1 9.3 1.7 2.2 4.1 3.7 7.3 3.8h7c1.9-1.9 4-4.1 5.9-3.8.6.1 1.4.6 2.2 1.2.8.6 1.6 1.5 2.3 2.3l.3.3c4.2-.2 5.6-.8 6.8-1.3 1-.4 1.8-.7 2.6-.7 1.2 0 2.4.5 3.5 1 1 .4 1.9.8 3 1 .7.1 2.1 0 3.5 0h4.8c.3 0 .5.3.5.6s-.2.5-.5.5h-2.9c-3.3 0-4.8.1-5.5 0-1.2-.1-2.2-.6-3.3-1-1.1-.4-2.1-.9-3.1-.9-.6 0-1.3.3-2.2.6-1.3.5-2.8 1.1-5.1 1.3-1.1.2-1 .3-.9.4 1.8 2.1 2.3 2.6 6.7 2.6 4.6 0 8.1 0 10.3-.1.3 0 .5.2.5.5s-.2.5-.5.6c-2.3.1-5.7.1-10.3.1-5 0-5.5-.6-7.6-3-.5-.6-1-1.2-1.5-1.7-.7-.8-1.4-1.5-2.2-2.2-.7-.5-1.3-.9-1.7-1-1.4-.2-3.3 1.8-5 3.5-.7.8-1.4 1.5-2 1.9-4.4 3.4-7.4 2.4-10.8 1.2-1.6-.6-3.4-1.1-5.4-1.2-1.7-.1-3.4.3-5.3.9-2.6.7-5.8 1.5-10.4 1.5h-19.9c-.3 0-.5-.2-.5-.5s.2-.5.5-.5h19.9c4.4 0 7.5-.8 10.1-1.5 2.1-.5 3.8-1 5.7-.9 2.2.1 4 .7 5.6 1.3 3.1 1 5.9 2 9.8-1.1.3-.2.6-.5.8-.7h-12.7c-3.6 0-5.8-1.2-7.7-2.2-1.2-.6-2.2-1.2-3.3-1.2-1.6 0-3.4 1-5.2 2.1-2.1 1.2-4.2 2.5-6.6 2.4-.8 0-1.4-.2-2-.5-.7-.3-1.6-.6-3.4-.7-1.5-.1-3.5 0-5.9 0h-8c-.3 0-.5-.2-.5-.5s.2-.5.5-.5h14c1.9.1 2.9.4 3.8.8.5.2 1 .4 1.7.4 2.1 0 4.1-1.1 6-2.3 1.9-1.1 3.8-2.2 5.7-2.2.6 0 1.1.1 1.6.3 4.8-.2 4.7-3.2 4.6-8.9v-1.1-.8c0-3.8.1-8.5 1.3-14.1-.2-.8-.5-1.5-.7-2.3l-.1.2c-.4-.2-1.3 0-2.1.2-1.3.4-2.5 1.2-3.1 1.6v8c0 .9 0 3.4-.1 5.7 0 1.8-.1 3.4-.1 3.9 0 2.3-.2 3.9-.6 5-.5 1.2-1.2 1.8-2 2-1.9.5-3.2-.8-4.7-2.2-1.3-1.2-2.6-2.5-4.3-2.5-1.7 0-3 1.1-4.3 2.1-.9.7-1.8 1.5-2.9 1.9-.6.3-1.4.5-2.3.7-.9.2-1.9.3-2.9.4-.9.1-1.7.1-2.6.2-.5 0-1.5.1-3 .1-.3 0-.5-.2-.5-.5s.2-.5.5-.5c1.5 0 2.5 0 3-.1.8 0 1.7-.1 2.5-.2.9-.1 1.9-.2 2.8-.4.8-.2 1.5-.4 2.1-.6.8-.4 1.6-.9 2.3-1.5H119c-.3 0-.5-.2-.6-.5 0-.3.2-.5.5-.6h20c1.1-.8 2.3-1.5 3.9-1.5 1.4 0 2.6.6 3.7 1.5 1.8.1 2.8-.3 3.3-1.2.5-1 .6-2.6.6-4.8l-.1-15.3c-2.6.4-2.8 1.1-3.3 2.1 0 2.1 0 4 .1 5.7 0 1.2.1 2.2.1 3.1 0 5.3-.8 7.7-6.2 7.7l-16.2-.1c-.3 0-.5-.2-.5-.5 0-.1.1-.3.2-.4.1-.1.2-.2.4-.2l16.2.1c4.5 0 5.1-2.1 5.1-6.7 0-1 0-2-.1-3-.1-1.7-.1-3.6-.1-5.8 0-.1 0-.1.1-.2.8-1.7.9-2.5.9-2.5.1-.3.3-.4.6-.4h2.8v-3.1c0-.1.1-.3.2-.4.7-.6 1.4-1 2.1-1.2.7-.3 1.5-.4 2-.3.6.1 1.2.6 1.6 1.1l.3.3c.1.1.2.2.2.4v2.9c.2-.1.4-.1.5-.2.8-.3 1.6-.4 2.3-.4-.3-1.2-.5-2.5-.7-3.7-.4-3.5-.1-6.9 1.2-10.6.1-.2.2-.3.3-.3 1.4 0 2.6.2 3.5.5 1 .4 1.8.9 2.5 1.7 1.5 1.7 2.4 3.9 2.8 6.3.5 2.9.3 6.1-.2 8.7.3 1 .4 2 .6 3 .6.1 1.2.1 1.7.2s.9.2 1.4.3v-2.3-8.6-.2c.1-.3.4-.5.7-.4 2 .5 3.4 1.7 4.3 3.5.8 1.7 1 4 .8 6.9.4.5.7 1 .9 1.6.2.7.3 1.5.4 2.3.1 1.8.1 3.6.1 5.4v3.2c0 .7 0 1.2.2 1.5.1.2.4.3.9.4l.3-1.2c.2-1.2.3-2.3.3-3.4.1-2.7 0-6.5 0-11.1 0-3.4-.1-7.1-.1-11.2 0-.2.1-.4.3-.5l2.1-.9c1.3.5 1.9 1.1 2.3 1.7.4.7.6 1.4.5 2.2v1.3c.7.9 1.1 1.7 1.4 2.5.3.9.4 1.7.3 2.5l-.1 2.5 1.3 1.9c.2.4.3 1.3.2 2.7l.3 7.6c.6 1.3 1.2 2.4 2.1 3.4H207c.3 0 .5.2.5.5s-.2.5-.5.5h-13.8c.4.3.8.7 1.3.9 2.1 1.3 4.9 1.9 8.9 1.9h9.4c.3 0 .5.2.5.5s-.2.5-.5.5h-9.5c-4.2 0-7.2-.7-9.5-2.1-2.3-1.4-3.8-3.4-4.9-6 0-.1 0-.1-.1-.2l-.2-7.7c0-1.3 0-2-.1-2.2l-1.3-2c-.1-.1-.1-.2-.1-.3l.1-2.7c.1-.7.1-1.3-.2-2-.3-.7-.7-1.5-1.4-2.3-.1-.1-.1-.2-.1-.3l.1-1.5c.1-.6-.1-1.1-.3-1.6-.3-.4-.7-.8-1.2-1.2-.3.1-.8.3-1.5.6v10.8c0 4.6.1 8.4 0 11.1 0 1.1-.1 2.3-.3 3.6-.2 1-.4 2-.8 3-.6 1.6-1.6 3-2.9 3.8-1.2.8-2.7 1.2-4.4 1-1.2-.1-2.3-.5-3.1-1.2-.8-.6-1.3-1.5-1.6-2.7-.3-1.7-.3-4-.3-6.5 0-5.5.1-12.4-3.3-18.7-.5-1-1.1-2.1-1.7-3.1-1.3-2.4-2.6-4.6-3.4-6.5-.8 3-1 5.9-.7 8.7.4 3.3 1.4 6.7 2.7 10.2.5 1.3.9 3 1.4 4.9 1.6 6.8 3.9 16 12.3 16 1.1 0 2.1-.3 3-.6.9-.4 1.7-.9 2.5-1.3.5-.3 1-.5 1.5-.8.7-.4 1.4-.8 2.1-1 3-1 4.2-.1 5.9 1.1 1.1.8 2.5 1.7 4.8 2.1 2.5.4 6.4.6 11.8.5.3 0 .5.2.5.5s-.2.5-.5.5c-5.5 0-9.5-.1-12-.6-2.6-.4-4-1.5-5.3-2.3-1.4-1-2.5-1.7-4.9-.9-.6.2-1.2.5-1.9.9-.4.2-.9.5-1.4.7-.8.5-1.7 1-2.7 1.4-1 .4-2.2.7-3.4.7-9.3 0-11.7-9.7-13.4-16.8-.4-1.9-.8-3.5-1.3-4.8-.2-.5-.3-.9-.5-1.4-.6 5.1-.6 9.4-.6 12.9zm6 13c-1.5-.7-2.8-1.8-3.8-3.2-.9-1.2-1.7-2.7-2.2-4.2-.2 2.9-1 4.6-3.8 5.2l.3.1c1.7.9 3.9 2.1 7.2 2.1h2.3zm-18.4-6.6c1.3 1.2 2.4 2.3 3.7 1.9.5-.1.9-.6 1.2-1.4.4-1 .6-2.4.6-4.6 0-.5 0-2.1.1-4 0-2.3.1-4.8.1-5.6v-8.2c0-.2.1-.3.2-.4.3-.3 1.1-.8 2-1.2v-1.5-1.7l-.1-.2c-.4-.3-.7-.7-1-.8-.4-.1-.9 0-1.5.2s-1.1.5-1.6.9l.1 19.2c0 2.3-.1 4.1-.7 5.3-.6 1-1.5 1.7-3.1 1.8v.3zm18.9-28c.6 1.1 1.2 2.3 1.6 3.6.2-2 .2-4.1-.1-6.1-.4-2.2-1.1-4.3-2.5-5.8-.6-.6-1.3-1.1-2.1-1.4-.6-.2-1.4-.4-2.2-.5.8 1.9 2.2 4.3 3.6 7 .6 1.1 1.1 2.1 1.7 3.2zm3.5 22.9h.2c.3 0 .6 0 .9-.1.7-.1 1.6-.6 1.6-1.9V2270c-.5-.2-1.1-.3-1.6-.4-.4-.1-.9-.2-1.4-.2.4 3.2.4 6.3.4 9.1-.1 1.1-.1 2.4-.1 3.6zm.3 2.7c.2.9.6 1.6 1.2 2.1.7.6 1.6.9 2.5.9 1.5.1 2.7-.2 3.7-.9 1.1-.7 1.9-1.9 2.5-3.3.1-.2.1-.3.2-.5-.7-.1-1.2-.4-1.5-.9-.3-.5-.4-1.2-.4-2v-3.2c0-1.8.1-3.5-.1-5.3-.1-.8-.2-1.5-.4-2.1-.2-.6-.4-1-.8-1.4-.1-.1-.2-.3-.1-.4.3-2.8.1-5-.7-6.6-.6-1.3-1.5-2.2-2.9-2.6v21.5c0 2-1.3 2.7-2.4 3-.4.1-.8.1-1.1.1h-.1c.2.5.3 1.1.4 1.6z"/>
    </g>
    <g transform="translate(-105 -2248)">
        <path id="gw7uc" class="st0" d="M124 2315.2c-.7-.7-1.3-1.2-2.1-1.5s-1.6-.5-2.5-.5c-.7 0-1.4.1-2.1.4-1.3.6-2.4 1.7-3 3-.3.6-.4 1.4-.4 2.2 0 .6.1 1.2.2 1.7s.4 1 .7 1.5c.6.8 1.2 1.4 2 1.8.8.4 1.7.6 2.6.6.9 0 1.7-.2 2.4-.5.7-.4 1.4-.9 2-1.6v2.1c-.7.5-1.4.9-2.2 1.1-.8.3-1.6.4-2.4.4-.7 0-1.4-.1-2.1-.3-.7-.2-1.3-.5-1.9-.9-1-.6-1.7-1.5-2.3-2.5-.5-1-.8-2.1-.8-3.3 0-1 .2-2 .5-2.8.4-.9.9-1.7 1.6-2.3.7-.6 1.5-1.1 2.3-1.5.8-.3 1.8-.5 2.8-.5.8 0 1.6.1 2.3.4.7.2 1.5.6 2.2 1.1v1.9zm3.7 10.3V2312h1.6v13.5h-1.6zm8.3-12h-3.9v-1.5h9.3v1.5h-3.8v11.9H136v-11.9zm12 12v-6.2l-4.6-7.3h1.9l3.6 5.8 3.6-5.8h1.9l-4.6 7.3v6.2H148zm17.7.5l-5.8-14h1.8l4 10.3 4-10.3h1.8l-5.8 14zm16.5-2.1c.7-.3 1.3-.7 1.8-1.2s.9-1.1 1.2-1.8c.3-.7.4-1.4.4-2.1 0-.8-.1-1.5-.4-2.2-.3-.7-.7-1.3-1.2-1.8s-1.1-.9-1.8-1.2c-.7-.3-1.4-.4-2.1-.4-.7 0-1.5.1-2.2.4-.7.3-1.3.7-1.8 1.2s-.9 1.1-1.2 1.8c-.3.7-.4 1.4-.4 2.1 0 .7.1 1.4.4 2.1.3.7.7 1.3 1.2 1.8s1.1.9 1.8 1.2c.7.3 1.4.4 2.1.4.8.1 1.6 0 2.2-.3zm4.6-2.4c-.4.9-.9 1.6-1.6 2.3-.7.7-1.5 1.2-2.4 1.5-.9.4-1.8.5-2.8.5-.9 0-1.9-.2-2.8-.5-.9-.4-1.7-.9-2.4-1.5-.7-.7-1.2-1.4-1.6-2.3-.4-.9-.5-1.8-.5-2.7 0-1 .2-1.9.5-2.7.4-.9.9-1.6 1.6-2.3.7-.7 1.5-1.2 2.3-1.5.9-.4 1.8-.5 2.8-.5 1 0 1.9.2 2.8.5.9.3 1.7.9 2.4 1.5s1.2 1.4 1.6 2.3c.4.9.6 1.8.6 2.7.1.9-.1 1.8-.5 2.7zm4.2-9.5h1.6v13.5H191V2312zm17 3.2c-.7-.7-1.3-1.2-2.1-1.5s-1.6-.5-2.5-.5c-.7 0-1.4.1-2.1.4-1.3.6-2.4 1.7-3 3-.3.6-.4 1.4-.4 2.2 0 .6.1 1.2.2 1.7s.4 1 .7 1.5c.6.8 1.2 1.4 2 1.8.8.4 1.7.6 2.6.6.9 0 1.7-.2 2.4-.5.7-.4 1.4-.9 2-1.6v2.1c-.7.5-1.4.9-2.2 1.1-.8.2-1.6.4-2.4.4-.7 0-1.4-.1-2.1-.3-.7-.2-1.3-.5-1.9-.9-1-.7-1.7-1.5-2.3-2.5-.5-1-.8-2.1-.8-3.3 0-1 .2-2 .5-2.8.4-.9.9-1.7 1.6-2.3.7-.6 1.5-1.1 2.3-1.5.8-.3 1.8-.5 2.7-.5.8 0 1.6.1 2.3.4.7.2 1.5.6 2.2 1.1v1.9zm3.7-3.2h7.2v1.5h-5.6v3.9h5.6v1.5h-5.6v5.2h5.6v1.5h-7.2V2312z"/>
    </g>
</svg>
