<svg id="Слой_1" xmlns="http://www.w3.org/2000/svg" viewBox="0 0 184 53">
    <style>
        .st0{fill:#fefefe}.st2{fill:#fff}
    </style>
    <g transform="translate(-768 -2004)">
        <path class="st0" d="M784 2045.1c0 .9-.3 1.5-.9 2.1-.6.6-1.5.8-2.5.8-1.1 0-1.9-.3-2.6-1.1-.7-.7-1-1.6-1-2.7v-1.6c0-1.1.3-2 1-2.7.7-.7 1.5-1.1 2.6-1.1s1.9.3 2.5.8c.6.5.9 1.2.9 2.1h-1.2c0-.6-.2-1.1-.6-1.5-.4-.4-.9-.5-1.6-.5-.7 0-1.3.3-1.7.8-.4.5-.6 1.2-.6 2v1.6c0 .8.2 1.5.6 2 .4.5 1 .8 1.7.8s1.2-.2 1.6-.5c.4-.4.6-.8.6-1.5l1.2.2z" id="vmvqa"/>
    </g>
    <g transform="translate(-768 -2004)">
        <path class="st0" d="M788.1 2042c-.5 0-.8.2-1.1.5-.3.3-.5.8-.6 1.3h3.3v-.1c0-.5-.1-.9-.4-1.2-.3-.4-.7-.5-1.2-.5zm.2 6c-1 0-1.8-.3-2.4-.9-.6-.6-.9-1.4-.9-2.4v-.3c0-1 .3-1.8.9-2.4.6-.6 1.3-.9 2.2-.9 1 0 1.7.3 2.2.8.5.6.7 1.3.7 2.2v.6h-4.6c0 .7.2 1.2.5 1.6.3.4.8.6 1.5.6.4 0 .8-.1 1.2-.2.3-.1.6-.3.9-.5l.5.8c-.3.2-.6.4-1 .6-.6.3-1.1.4-1.7.4z" id="vmvqb"/>
    </g>
    <g transform="translate(-768 -2004)">
        <path class="st0" d="M797 2042h-2.4v6h-1.3v-6H791v-1h6v1z" id="vmvqc"/>
    </g>
    <g transform="translate(-768 -2004)">
        <path class="st0" d="M800.1 2044.7v2.3h1.5c.4 0 .7-.1.9-.3.2-.2.3-.5.3-.8 0-.3-.1-.6-.3-.8-.2-.2-.5-.4-.9-.4h-1.5zm0-1h1.5c.7 0 1.3.2 1.7.6.4.4.6.9.6 1.5s-.2 1.2-.6 1.6c-.4.4-1 .6-1.7.6H799v-7h1.1v2.7z" id="vmvqd"/>
    </g>
    <g transform="translate(-768 -2004)">
        <path class="st0" d="M812 2046.3l2.4-5.3h1.6v7h-1.3v-4.9l-2.2 4.9h-.9l-2.2-5v5H808v-7h1.7l2.3 5.3z" id="vmvqe"/>
    </g>
    <g transform="translate(-768 -2004)">
        <path class="st0" d="M820.5 2047c.5 0 .9-.1 1.3-.3.4-.2.6-.5.7-.8v-1.1H821c-.5 0-.9.1-1.3.4-.3.3-.5.5-.5.9 0 .3.1.5.3.7.3.1.6.2 1 .2zm2.2.9c0-.2-.1-.4-.1-.5v-.5c-.2.3-.6.6-1 .8-.4.2-.8.3-1.3.3-.7 0-1.3-.2-1.7-.5-.4-.4-.6-.9-.6-1.5s.3-1.1.8-1.5c.6-.4 1.3-.5 2.3-.5h1.4v-.7c0-.4-.1-.7-.4-.9-.3-.2-.6-.3-1.1-.3-.4 0-.8.1-1 .3-.3.2-.4.4-.4.7h-1.2c0-.5.2-.9.7-1.3.5-.4 1.2-.6 2-.6s1.5.2 2 .6.7.9.7 1.7v3.9c0 .2.1.4.1.7l-1.2-.2z" id="vmvqf"/>
    </g>
    <g transform="translate(-768 -2004)">
        <path class="st0" d="M829 2042h-2.9v6H825v-7h4v1z" id="vmvqg"/>
    </g>
    <g transform="translate(-768 -2004)">
        <path class="st0" d="M832.5 2047c.5 0 .9-.1 1.3-.3.4-.2.6-.5.7-.8v-1.1H833c-.5 0-.9.1-1.3.4-.3.3-.5.5-.5.9 0 .3.1.5.3.7.3.1.6.2 1 .2zm2.2.9c0-.2-.1-.4-.1-.5v-.5c-.2.3-.6.6-1 .8-.4.2-.8.3-1.3.3-.7 0-1.3-.2-1.7-.5-.4-.4-.6-.9-.6-1.5s.3-1.1.8-1.5c.6-.4 1.3-.5 2.3-.5h1.4v-.7c0-.4-.1-.7-.4-.9-.3-.2-.6-.3-1.1-.3-.4 0-.8.1-1 .3-.3.2-.4.4-.4.7h-1.2c0-.5.2-.9.7-1.3.5-.4 1.2-.6 2-.6s1.5.2 2 .6.7.9.7 1.7v3.9c0 .2.1.4.1.7l-1.2-.2z" id="vmvqh"/>
    </g>
    <g transform="translate(-768 -2004)">
        <path class="st0" d="M840.1 2043.9c.5 0 .9-.1 1.1-.3.2-.2.4-.4.4-.7 0-.3-.1-.5-.4-.7-.3-.2-.7-.3-1.2-.3s-.8.1-1.1.3c-.3.2-.5.5-.5.7h-1.2c0-.6.2-1.1.8-1.4.6-.4 1.2-.5 2.1-.5.9 0 1.6.2 2.1.5s.8.8.8 1.5c0 .3-.1.6-.3.8-.2.3-.5.5-.9.6.4.1.8.3 1 .6.2.3.4.6.4 1 0 .6-.3 1.1-.8 1.5-.6.4-1.3.5-2.2.5-.8 0-1.5-.2-2.1-.5-.6-.4-.9-.9-.8-1.5h1.2c0 .3.2.6.5.8.3.2.7.3 1.2.3s.9-.1 1.2-.3c.3-.2.5-.5.5-.8 0-.4-.1-.6-.4-.8-.3-.2-.7-.3-1.2-.3h-1.4v-1h1.2z" id="vmvqi"/>
    </g>
    <g transform="translate(-768 -2004)">
        <path class="st0" d="M847.9 2041h1.1v7h-1.1v-5l-2.7 5H844v-7h1.1v5l2.8-5z" id="vmvqj"/>
    </g>
    <g transform="translate(-768 -2004)">
        <path class="st0" d="M856 2048h-1.1v-3h-2.8v3H851v-7h1.1v3h2.8v-3h1.1v7z" id="vmvqk"/>
    </g>
    <g transform="translate(-768 -2004)">
        <path class="st0" d="M859.2 2044.6c0 .7.2 1.3.4 1.8.3.5.7.7 1.3.7.6 0 1-.2 1.3-.7.3-.5.5-1.1.5-1.8v-.1c0-.7-.2-1.3-.5-1.8s-.7-.7-1.3-.7c-.6 0-1 .2-1.3.7-.3.5-.4 1.1-.4 1.8v.1zm-1.2-.2c0-1 .3-1.8.8-2.5.5-.6 1.3-1 2.2-1 .9 0 1.7.3 2.2 1 .5.6.8 1.5.8 2.5v.1c0 1-.3 1.8-.8 2.5-.5.6-1.3 1-2.2 1s-1.7-.3-2.2-1c-.5-.6-.8-1.5-.8-2.5v-.1z" id="vmvql"/>
    </g>
    <g transform="translate(-768 -2004)">
        <path class="st0" d="M866.3 2044.9h2c.5 0 .8.1 1.1.3.2.2.4.4.4.8 0 .3-.1.6-.4.8-.2.2-.6.3-1.1.3h-2v-2.2zm0-.9v-2h1.5c.5 0 1 .1 1.2.3.3.2.4.4.4.8 0 .3-.1.6-.4.7-.3.2-.7.2-1.2.2h-1.5zm-1.3 4h3.3c.9 0 1.5-.2 2-.5s.7-.8.7-1.5c0-.4-.1-.7-.4-1-.2-.3-.6-.5-1-.6.4-.1.7-.3.9-.6.2-.3.3-.6.3-.9 0-.6-.3-1.1-.8-1.4-.5-.3-1.2-.5-2.2-.5H865v7z" id="vmvqm"/>
    </g>
    <g transform="translate(-768 -2004)">
        <path class="st0" d="M878.7 2047c.3 0 .6-.1.9-.4s.4-.6.4-.9h1c0 .6-.2 1.1-.7 1.6-.5.5-1 .7-1.6.7-.9 0-1.5-.3-2-1-.5-.6-.7-1.4-.7-2.4v-.3c0-1 .2-1.8.7-2.4.5-.6 1.1-1 2-1 .7 0 1.2.2 1.7.7.4.5.6 1 .6 1.7h-1c0-.4-.1-.8-.4-1.1-.2-.3-.6-.4-.9-.4-.5 0-.9.2-1.2.7-.3.5-.4 1-.4 1.7v.3c0 .7.1 1.2.4 1.7.2.6.6.8 1.2.8z" id="vmvqn"/>
    </g>
    <g transform="translate(-768 -2004)">
        <path class="st0" d="M884.5 2047c.5 0 .9-.1 1.3-.3.4-.2.6-.5.7-.8v-1.1H885c-.5 0-.9.1-1.3.4-.3.3-.5.5-.5.9 0 .3.1.5.3.7.3.1.6.2 1 .2zm2.2.9c0-.2-.1-.4-.1-.5v-.5c-.2.3-.6.6-1 .8-.4.2-.8.3-1.3.3-.7 0-1.3-.2-1.7-.5-.4-.4-.6-.9-.6-1.5s.3-1.1.8-1.5c.6-.4 1.3-.5 2.3-.5h1.4v-.7c0-.4-.1-.7-.4-.9s-.6-.3-1.1-.3c-.4 0-.8.1-1 .3-.3.2-.4.4-.4.7h-1.2c0-.5.2-.9.7-1.3.5-.4 1.2-.6 2-.6s1.5.2 2 .6c.5.4.7.9.7 1.7v3.9c0 .2.1.4.1.7l-1.2-.2z" id="vmvqo"/>
    </g>
    <g transform="translate(-768 -2004)">
        <path class="st0" d="M895 2048h-1.1v-3h-2.8v3H890v-7h1.1v3h2.8v-3h1.1v7z" id="vmvqp"/>
    </g>
    <g transform="translate(-768 -2004)">
        <path class="st0" d="M902 2042h-2.4v6h-1.3v-6H896v-1h6v1z" id="vmvqq"/>
    </g>
    <g transform="translate(-768 -2004)">
        <path class="st0" d="M906.1 2042c-.5 0-.8.2-1.1.5-.3.3-.5.8-.6 1.3h3.3v-.1c0-.5-.1-.9-.4-1.2-.3-.4-.7-.5-1.2-.5zm.2 6c-1 0-1.8-.3-2.4-.9-.6-.6-.9-1.4-.9-2.4v-.3c0-1 .3-1.8.9-2.4.6-.6 1.3-.9 2.2-.9 1 0 1.7.3 2.2.8.5.6.7 1.3.7 2.2v.6h-4.6c0 .7.2 1.2.5 1.6.3.4.8.6 1.5.6.4 0 .8-.1 1.2-.2.3-.1.6-.3.9-.5l.5.8c-.3.2-.6.4-1 .6-.6.3-1.1.4-1.7.4z" id="vmvqr"/>
    </g>
    <g transform="translate(-768 -2004)">
        <path class="st0" d="M912 2043.6l1.5-2.6h1.5l-2.3 3.5 2.3 3.5h-1.5l-1.5-2.6-1.5 2.6H909l2.3-3.5-2.3-3.5h1.5l1.5 2.6z" id="vmvqs"/>
    </g>
    <g transform="translate(-768 -2004)">
        <path class="st0" d="M921 2048h-1.1v-3h-2.8v3H916v-7h1.1v3h2.8v-3h1.1v7z" id="vmvqt"/>
    </g>
    <g transform="translate(-768 -2004)">
        <path class="st0" d="M927.9 2041h1.1v7h-1.1v-5l-2.7 5H924v-7h1.1v5l2.8-5z" id="vmvqu"/>
    </g>
    <g transform="translate(-768 -2004)">
        <path class="st0" d="M932.9 2045h-.6v3H931v-7h1.3v3h.5l2.5-3h1.5l-2.9 3.3 3.1 3.6h-1.6l-2.5-2.9z" id="vmvqv"/>
    </g>
    <g transform="translate(-768 -2004)">
        <path class="st0" d="M941.9 2041h1.1v7h-1.1v-5l-2.7 5H938v-7h1.1v5l2.8-5z" id="vmvqw"/>
    </g>
    <g transform="translate(-768 -2004)">
        <path class="st2" d="M951.9 2056.9H768.1V2004H952v52.9zm-182-1.8H950V2006H769.9v49.1z" id="vmvqx"/>
    </g>
    <g transform="translate(-768 -2004)">
        <path class="st0" d="M939 2032v-4h4v4h-4z" id="vmvqy"/>
    </g>
    <g transform="translate(-768 -2004)">
        <path class="st0" d="M939 2027v-4h4v4h-4z" id="vmvqz"/>
    </g>
    <g transform="translate(-768 -2004)">
        <path class="st0" d="M939 2023v-4h4v4h-4z" id="vmvqA"/>
    </g>
    <g transform="translate(-768 -2004)">
        <path class="st0" d="M939 2018v-4h4v4h-4z" id="vmvqB"/>
    </g>
    <g transform="translate(-768 -2004)">
        <path class="st0" d="M935 2027v-4h4v4h-4z" id="vmvqC"/>
    </g>
    <g transform="translate(-768 -2004)">
        <path class="st0" d="M935 2023v-4h4v4h-4z" id="vmvqD"/>
    </g>
    <g transform="translate(-768 -2004)">
        <path class="st0" d="M935 2018v-4h4v4h-4z" id="vmvqE"/>
    </g>
    <g transform="translate(-768 -2004)">
        <path class="st0" d="M930 2023v-4h4v4h-4z" id="vmvqF"/>
    </g>
    <g transform="translate(-768 -2004)">
        <path class="st0" d="M930 2018v-4h4v4h-4z" id="vmvqG"/>
    </g>
    <g transform="translate(-768 -2004)">
        <path class="st0" d="M925 2018v-4h4v4h-4z" id="vmvqH"/>
    </g>
    <g transform="translate(-768 -2004)">
        <path class="st0" d="M777 2018v-4h4v4h-4z" id="vmvqI"/>
    </g>
    <g transform="translate(-768 -2004)">
        <path class="st0" d="M777 2023v-4h4v4h-4z" id="vmvqJ"/>
    </g>
    <g transform="translate(-768 -2004)">
        <path class="st0" d="M777 2027v-4h4v4h-4z" id="vmvqK"/>
    </g>
    <g transform="translate(-768 -2004)">
        <path class="st0" d="M777 2032v-4h4v4h-4z" id="vmvqL"/>
    </g>
    <g transform="translate(-768 -2004)">
        <path class="st0" d="M782 2023v-4h4v4h-4z" id="vmvqM"/>
    </g>
    <g transform="translate(-768 -2004)">
        <path class="st0" d="M782 2027v-4h4v4h-4z" id="vmvqN"/>
    </g>
    <g transform="translate(-768 -2004)">
        <path class="st0" d="M782 2032v-4h4v4h-4z" id="vmvqO"/>
    </g>
    <g transform="translate(-768 -2004)">
        <path class="st0" d="M786 2027v-4h4v4h-4z" id="vmvqP"/>
    </g>
    <g transform="translate(-768 -2004)">
        <path class="st0" d="M786 2032v-4h4v4h-4z" id="vmvqQ"/>
    </g>
    <g transform="translate(-768 -2004)">
        <path class="st0" d="M791 2032v-4h4v4h-4z" id="vmvqR"/>
    </g>
    <g transform="translate(-768 -2004)">
        <path class="st0" d="M908.2 2030.6c.2.4.6.6 1.2.6v.7h-5v-.7c.7-.1 1.1-.4 1.3-.9.1-.3.2-.9.2-1.9v-6.2c0-1-.1-1.6-.2-2-.2-.6-.6-.9-1.3-1v-.7h8.1v.7c-.4 0-.6.2-.6.6 0 .3.2.7.6 1.1l1.6 2.3 1.6-2.2c.3-.5.5-.9.5-1.2 0-.3-.1-.5-.4-.5v-.7h7.2v.7c-.7.1-1.1.4-1.3.9-.1.3-.2.9-.2 1.9v6.2c0 1.1.1 1.8.2 2.1.2.6.6.8 1.3.8v.7h-7.7v-.7c.5 0 .9-.2 1.1-.6.1-.3.2-.8.2-1.5v-6.3l-4.4 6.1-4.2-6v5.3c-.1 1.2 0 2 .2 2.4zm-10.5-3.5c.1-.5.1-1.1.1-1.6 0-.7 0-1.4-.1-2s-.3-1.2-.5-1.7-.5-.9-.8-1.1c-.4-.3-.8-.5-1.3-.5-1 0-1.7.5-2.1 1.6-.3.8-.5 1.7-.5 2.8 0 1.3.2 2.4.6 3.4.5 1.4 1.3 2.1 2.4 2.1.4 0 .8-.1 1.1-.5.3-.3.5-.6.7-1 .2-.4.3-.9.4-1.5zm-9.8 1.4c-.4-1-.6-2-.6-3.1 0-2.3.8-4.1 2.5-5.4 1.5-1.3 3.4-1.9 5.7-1.9 2.2 0 4.1.6 5.5 1.8 1.5 1.3 2.3 3 2.3 5.3 0 2.2-.8 3.9-2.4 5.2-1.5 1.2-3.4 1.8-5.6 1.8-1 0-2-.1-2.9-.3-.9-.2-1.8-.6-2.5-1.1-1-.6-1.6-1.4-2-2.3zm-9.3 1.2c.4-.2.6-.8.6-1.6v-10.4c0-.7-.1-1.3-.3-1.6-.2-.3-.6-.5-1.1-.5-.9 0-1.8.5-2.6 1.4-1 1.2-1.9 2.8-2.7 4.7-.9 2.2-1.3 4.4-1.3 6.4 0 .8.2 1.3.5 1.5.2.1.8.2 1.7.2h3.8c.7.1 1.2.1 1.4-.1zm-11.9 1.2c.1.1.2.1.3.1.3 0 .6-.3.9-.8.2-.6.4-1.2.6-2 .3-2 .8-3.9 1.5-5.6.9-2.3 2-4.3 3.4-6.1.2-.3.3-.7.3-1 0-.5-.2-.7-.7-.7h-.2v-.7h13.4v.7c-.6 0-1.1.3-1.3.9-.1.4-.2 1.1-.2 2.1v10.6c0 .8.1 1.5.2 2s.3.7.7.7c.2 0 .4-.1.6-.2l1.2 6.2-.5.1c-.7-2-1.7-3.4-2.8-4.2-1-.7-2.2-1-3.5-1H872c-1.8 0-3.2.6-4.4 1.7-.9.9-1.6 2.1-2 3.5l-.6-.1 1.3-6.2c.2-.1.3-.1.4 0zm-17.7-11.8c-.8 0-1.2.7-1.2 2.2v7.6c0 .5.1.8.2.9.2.1.5.2 1 .2h.6c.5 0 .8-.1 1-.2.2-.2.3-.5.3-.9v-7.6c0-.8-.1-1.3-.3-1.7-.2-.4-.5-.5-1-.5v-.7h7.7v.7c-1 0-1.4.7-1.4 2.2v7.6c0 1.5.5 2.2 1.4 2.2v.7h-24v-.7c1 0 1.4-.7 1.4-2.2v-7.6c0-1.5-.5-2.2-1.4-2.2v-.7h7.7v.7c-.8 0-1.2.7-1.2 2.2v7.6c0 .5.1.8.2.9.2.1.5.2 1 .2h.6c.5 0 .8-.1 1-.2s.3-.5.3-.9v-7.6c0-.8-.1-1.3-.3-1.7-.2-.4-.5-.5-1-.5v-.7h7.5l-.1.7zm-26.2 7.2c-.3.5-.5.9-.5 1.4 0 .4.1.8.4 1.2.3.3.6.5 1.1.5 1 0 1.6-.6 2.1-1.9.3-.9.4-1.9.4-3.1-.6.1-1 .2-1.3.3-.3.1-.6.3-1 .5-.5.3-.9.7-1.2 1.1zm3.5-4.1c0-.3 0-.6-.1-.8l-.3-.6c-.2-.3-.5-.5-.9-.6-.4-.1-.8-.2-1.2-.1-1.1 0-2 .3-2.9.9-.8.6-1.5 1.4-1.9 2.4h-.5l.5-4.9.4.4c.1.1.3.1.5.1s.3 0 .5-.1.4-.1.5-.1c1.4-.3 2.4-.5 3-.6.7-.1 1.3-.1 1.9-.1.8 0 1.6.1 2.3.2.7.1 1.3.4 1.8.8s.9 1 1.1 1.8c.1.5.2 1.3.2 2.2v5.5c0 .7.1 1.2.2 1.6.2.5.6.8 1.3.8v.7h-5.5c-.2-.2-.4-.5-.6-.8-.2-.3-.3-.7-.4-1-.4.7-1.2 1.2-2.2 1.6-.9.4-1.8.5-2.7.5-1.1 0-2-.3-2.8-.9-.8-.6-1.3-1.5-1.3-2.5 0-1.3.5-2.4 1.6-3.3.8-.7 2-1.3 3.6-1.8 1.1-.3 2.3-.6 3.8-.8v-.5zm-21.4 6c0 .7.1 1.2.3 1.4.2.2.6.3 1.3.3 1.2 0 2.1-.3 2.9-.9.7-.6 1.1-1.5 1.1-2.7 0-1-.3-1.8-.8-2.5s-1.2-1.3-2.1-1.8l-2.7.9v5.3zm2.8-8.4c1.1-.7 1.6-1.5 1.6-2.4 0-.6-.3-1-.8-1.2-.5-.3-1.1-.4-1.7-.4-.4 0-.7 0-1 .1-.3 0-.5.2-.7.3-.1.1-.2.2-.2.4s-.1.4-.1.6v3.8c1.2-.3 2.2-.7 2.9-1.2zm-8.6-4.5c-.2-.4-.6-.6-1.1-.6v-.7h11.8c1.5 0 2.5.1 3.1.3 1.1.4 1.7 1.2 1.7 2.3 0 1-.5 1.9-1.6 2.7-.7.5-1.7 1-2.9 1.5 1.7.3 3.1.9 4.1 1.7 1.3 1 1.9 2.3 1.9 3.9 0 .9-.2 1.8-.7 2.5-.5.7-1.1 1.3-2 1.8-.6.4-1.4.6-2.3.8-.9.1-1.9.2-2.9.2H798v-.7c.6 0 .9-.2 1.1-.6.2-.4.3-1.1.3-2.1v-11c.1-.9 0-1.6-.3-2z" id="vmvqS"/>
    </g>
</svg>
