<?xml version="1.0" encoding="UTF-8"?><!DOCTYPE svg PUBLIC "-//W3C//DTD SVG 1.1//EN" "http://www.w3.org/Graphics/SVG/1.1/DTD/svg11.dtd"><svg xmlns="http://www.w3.org/2000/svg"><symbol id="icon-pen" viewBox="0 0 25 25">
    <style>
        .st0{opacity:.9}.st1{fill:#fff}
    </style>
    <g transform="translate(-1367 -787)" class="st0">
        <path id="b6fra" class="st1" d="M1387.2 809.1c-.4-.1-.8-.3-1.2-.5l2.6-2.6c.2.4.4.8.5 1.2l.9 2.8-2.8-.9zm-7.9-7.1l-1.3-1.3 2.7-2.7 1.3 1.3-.3-.3-2.6 2.6.2.4zm8.5 3.2l.2.2-2.6 2.6-.2-.2-5.9-5.9 2.6-2.6 5.9 5.9zm-16.8-11.6l2.6-2.6 6.4 6.4-2.6 2.6-6.4-6.4zm-.8-2.7l.7-.7c.2-.2.6-.2.8 0l1.3 1.3-1.6 1.6-1.3-1.3c-.2-.3-.2-.7.1-.9zm20.6 16.7c-.3-1-.9-2-1.7-2.7l-16.1-16.1c-.2-.2-.6-.2-.9 0l-.1.1-1.3-1.3c-.7-.7-1.9-.7-2.6 0l-.7.8c-.7.7-.7 1.9 0 2.6l1.3 1.3-.5.5c-1.2 1.2-1.2 3.1 0 4.3l4.9 4.8c.3.2.6.2.9 0 .2-.2.2-.6 0-.8l-4.9-4.8c-.7-.7-.7-1.8 0-2.5l7.3 7.3 1.3 1.3.9.9 6.2 6.2c.8.8 1.7 1.3 2.7 1.7l3.6 1.1c.3.1.7-.1.8-.4v-.4l-1.1-3.9z"/>
    </g>
</symbol><symbol id="icon-phone" viewBox="0 0 18 18">
    <style>
        .st0{opacity:.9}.st1{opacity:0}.st2{fill:#fff}
    </style>
    <g class="st0">
        <g transform="translate(-1197 -27)">
            <path id="hlg3a" d="M1198.8 31.5c0-.4.2-.8.5-1.1l1.2-1.2c.2-.2.4-.3.6-.3.2 0 .4.1.6.3.2.2.4.4.7.6.1.1.2.2.3.4l1 1c.2.2.3.4.3.6 0 .2-.1.4-.3.6l-.3.3-.9.9c-.3.3-.2.5-.2.7.3.6.6 1.2 1.2 1.9 1 1.2 2.1 2.2 3.2 2.9.1.1.3.2.4.2.1.1.3.1.4.2.1.1.2.1.3.1.3 0 .4-.2.5-.2l1.2-1.2c.2-.2.4-.3.6-.3.3 0 .5.2.6.3l2 2c.4.4.4.8 0 1.3-.1.2-.3.3-.4.4l-.7.7c-.4.4-.8.6-1.4.6h-.2c-1.1-.1-2.1-.5-2.9-.9-2.1-1-3.9-2.4-5.4-4.2-1.2-1.5-2.1-2.9-2.6-4.4-.2-.8-.3-1.6-.3-2.2zm2.4 7.1c1.6 1.9 3.5 3.4 5.7 4.4.8.4 1.9.9 3.2.9h.2c.8 0 1.5-.3 2-.9.2-.2.4-.4.6-.7.2-.1.3-.3.5-.5.7-.7.7-1.7 0-2.4l-2-2c-.3-.4-.7-.5-1.2-.5s-.8.2-1.2.5l-1.2 1.2c-.1-.1-.2-.1-.3-.2-.1-.1-.2-.1-.4-.2-1.1-.7-2.1-1.6-3-2.7-.5-.6-.8-1.1-1-1.6l.9-.9.3-.3c.4-.4.6-.8.6-1.2 0-.4-.2-.8-.6-1.2l-1-1-.3-.3c-.2-.2-.4-.5-.7-.7-.3-.3-.7-.5-1.2-.5-.4 0-.8.2-1.2.5l-1.2 1.2c-.5.5-.7 1-.8 1.6-.1.8.1 1.6.5 2.7.7 1.8 1.5 3.3 2.8 4.8z"/>
        </g>
        <g transform="translate(-1197 -27)">
            <g id="hlg3a_1_">
                <g class="st1">
                    <path class="st2" d="M1198.8 31.5c0-.4.2-.8.5-1.1l1.2-1.2c.2-.2.4-.3.6-.3.2 0 .4.1.6.3.2.2.4.4.7.6.1.1.2.2.3.4l1 1c.2.2.3.4.3.6 0 .2-.1.4-.3.6l-.3.3-.9.9c-.3.3-.2.5-.2.7.3.6.6 1.2 1.2 1.9 1 1.2 2.1 2.2 3.2 2.9.1.1.3.2.4.2.1.1.3.1.4.2.1.1.2.1.3.1.3 0 .4-.2.5-.2l1.2-1.2c.2-.2.4-.3.6-.3.3 0 .5.2.6.3l2 2c.4.4.4.8 0 1.3-.1.2-.3.3-.4.4l-.7.7c-.4.4-.8.6-1.4.6h-.2c-1.1-.1-2.1-.5-2.9-.9-2.1-1-3.9-2.4-5.4-4.2-1.2-1.5-2.1-2.9-2.6-4.4-.2-.8-.3-1.6-.3-2.2zm2.4 7.1c1.6 1.9 3.5 3.4 5.7 4.4.8.4 1.9.9 3.2.9h.2c.8 0 1.5-.3 2-.9.2-.2.4-.4.6-.7.2-.1.3-.3.5-.5.7-.7.7-1.7 0-2.4l-2-2c-.3-.4-.7-.5-1.2-.5s-.8.2-1.2.5l-1.2 1.2c-.1-.1-.2-.1-.3-.2-.1-.1-.2-.1-.4-.2-1.1-.7-2.1-1.6-3-2.7-.5-.6-.8-1.1-1-1.6l.9-.9.3-.3c.4-.4.6-.8.6-1.2 0-.4-.2-.8-.6-1.2l-1-1-.3-.3c-.2-.2-.4-.5-.7-.7-.3-.3-.7-.5-1.2-.5-.4 0-.8.2-1.2.5l-1.2 1.2c-.5.5-.7 1-.8 1.6-.1.8.1 1.6.5 2.7.7 1.8 1.5 3.3 2.8 4.8z"/>
                </g>
                <path d="M1210.3 44.5h-.3c-1.3-.1-2.5-.6-3.4-1-2.3-1.1-4.2-2.6-5.8-4.6-1.3-1.6-2.2-3.1-2.9-4.7-.4-1.1-.6-2-.5-2.9.1-.8.4-1.4.9-1.9l1.2-1.2c.9-.9 2.2-.9 3.1 0 .2.2.5.4.7.7l1.3 1.3c.5.5.7 1 .7 1.5 0 .6-.2 1.1-.7 1.5l-.3.3-.6.6c.2.4.4.7.8 1.2.9 1.1 1.9 2 2.9 2.6.1.1.2.1.3.2l.9-.9c.9-.9 2.2-.9 3.1 0l2 2c.9.9.9 2.1 0 3.1l-.5.5c-.3.2-.4.4-.6.6l-.1.1c-.4.7-1.2 1-2.2 1zm-11-13c0 .6.1 1.3.4 2.1.5 1.4 1.3 2.8 2.5 4.2 1.4 1.7 3.2 3.1 5.2 4.1.7.3 1.7.7 2.7.8h.1c.4 0 .8-.1 1.1-.4.2-.2.4-.5.7-.7l.5-.5c.2-.3.2-.4 0-.6l-2-2c-.2-.2-.3-.2-.5 0l-1.2 1.2c-.3.3-.6.4-.8.4-.2 0-.4 0-.5-.1-.2-.1-.3-.2-.4-.2-.2-.1-.4-.2-.5-.3-1.2-.8-2.3-1.8-3.3-3-.6-.7-1-1.3-1.2-2-.2-.5-.1-1 .3-1.3.3-.3.6-.5.8-.8l.4-.4c.2-.2.2-.2.2-.3 0-.1-.1-.2-.2-.3L1202 30l-.6-.6c-.2-.2-.3-.2-.5 0l-1.2 1.2c-.2.3-.3.6-.4.9z"/>
            </g>
        </g>
    </g>
</symbol></svg>