<?xml version="1.0" encoding="UTF-8"?><!DOCTYPE svg PUBLIC "-//W3C//DTD SVG 1.1//EN" "http://www.w3.org/Graphics/SVG/1.1/DTD/svg11.dtd"><svg xmlns="http://www.w3.org/2000/svg"><symbol id="icon-logo" viewBox="0 0 335 125">
    <path d="M1.8 91.6v-36h18.9c6.8 0 10.4 4.4 10.4 9.2 0 4.5-2.8 7.5-6.2 8.2 3.8.6 6.9 4.3 6.9 8.8 0 5.4-3.6 9.7-10.5 9.7H1.8zm21.5-25.4c0-2.3-1.6-3.9-4.2-3.9H9.5v7.8h9.6c2.5 0 4.2-1.6 4.2-3.9zm.7 14.7c0-2.3-1.6-4.2-4.6-4.2H9.5V85h9.9c2.8 0 4.6-1.6 4.6-4.1z"/>
    <path d="M37.5 91.6v-36h7.7v29.2h15.2v6.7H37.5z"/>
    <path d="M90.5 91.6l-2.2-6.1H72.9l-2.3 6.1h-8.7l13.9-36h9.6l13.9 36h-8.8zm-9.9-28.3L75 78.8h11.2l-5.6-15.5z"/>
    <path d="M100.9 73.7c0-11.1 8.4-18.6 19.1-18.6 7.9 0 12.5 4.3 15 8.8l-6.6 3.2c-1.5-2.9-4.7-5.2-8.5-5.2-6.5 0-11.3 5-11.3 11.8 0 6.8 4.7 11.8 11.3 11.8 3.7 0 7-2.3 8.5-5.2l6.6 3.2c-2.6 4.5-7.1 8.8-15 8.8-10.8 0-19.1-7.6-19.1-18.6z"/>
    <path d="M161 91.6l-10.9-14.4-2.8 3.3v11.1h-7.7v-36h7.7v16.1l12.7-16h9.4l-14.3 16.9 15.3 19.1H161z"/>
    <path d="M171.5 86.6l4.2-5.8c2.5 2.6 6.5 4.9 11.4 4.9 4.2 0 6.3-1.9 6.3-4 0-6.4-20.7-2-20.7-15.5 0-6 5.2-10.9 13.6-10.9 5.7 0 10.5 1.7 14 5l-4.3 5.6c-2.9-2.7-6.8-3.9-10.5-3.9-3.3 0-5.1 1.5-5.1 3.6 0 5.7 20.6 1.9 20.6 15.3 0 6.6-4.7 11.5-14.4 11.5-6.8-.1-11.8-2.4-15.1-5.8z"/>
    <path d="M237.5 91.6V66.5l-10.1 25.2H224l-10.1-25.2v25.2h-7.7v-36H217l8.7 21.7 8.7-21.7h10.8v36h-7.7z"/>
    <path d="M252.3 91.6v-36h7.7v36h-7.7z"/>
    <path d="M275.4 91.6V62.4h-10.5v-6.7h28.7v6.7h-10.5v29.2h-7.7z"/>
    <path d="M323.1 91.6V76.5h-17v15.1h-7.7v-36h7.7v14.1h17v-14h7.7v36h-7.7z"/>
    <g>
        <path d="M196.5 118.3l1.8-2.5c1.1 1.1 2.8 2.1 4.9 2.1 1.8 0 2.7-.8 2.7-1.7 0-2.7-8.9-.9-8.9-6.7 0-2.6 2.2-4.7 5.9-4.7 2.5 0 4.5.7 6 2.2l-1.8 2.4c-1.3-1.2-2.9-1.7-4.5-1.7-1.4 0-2.2.6-2.2 1.6 0 2.5 8.9.8 8.9 6.6 0 2.8-2 5-6.2 5-3-.2-5.1-1.2-6.6-2.6z"/>
        <path d="M225.5 120.5v-12.6H221V105h12.3v2.9h-4.5v12.6h-3.3z"/>
        <path d="M245.8 114.3V105h3.3v9.2c0 2.2 1.3 3.6 3.6 3.6s3.6-1.5 3.6-3.6V105h3.4v9.3c0 3.8-2.3 6.5-7 6.5s-6.9-2.7-6.9-6.5z"/>
        <path d="M273.2 120.5V105h6.1c4.8 0 8.2 3.1 8.2 7.7 0 4.7-3.4 7.7-8.2 7.7h-6.1zm11-7.8c0-2.7-1.7-4.8-4.8-4.8h-2.8v9.7h2.8c3 0 4.8-2.2 4.8-4.9z"/>
        <path d="M300.3 120.5V105h3.3v15.5h-3.3z"/>
        <path d="M316.3 112.7c0-4.7 3.4-8 8.1-8 4.7 0 8.1 3.3 8.1 8s-3.4 8-8.1 8c-4.7 0-8.1-3.3-8.1-8zm12.8 0c0-2.9-1.9-5.1-4.7-5.1-2.8 0-4.7 2.2-4.7 5.1 0 2.9 1.8 5.1 4.7 5.1 2.8 0 4.7-2.2 4.7-5.1z"/>
    </g>
    <g>
        <path d="M79.7 2L51.6 30.1c-.6.6-.8 1.4-.7 2.1v13.7c0 1 .8 1.7 1.7 1.7h13.5c.8.3 1.8.1 2.4-.6l28.1-28.1c.9-.9.9-2.5 0-3.4L83.1 2c-.9-1-2.5-1-3.4 0z"/>
        <path d="M65.3 13.5l-4.7 4.7c-.5.5-1.2.5-1.7 0L56 15.3c-.5-.5-.5-1.2 0-1.7l4.7-4.7c.5-.5 1.2-.5 1.7 0l2.9 2.9c.4.4.4 1.2 0 1.7z"/>
        <path d="M125.2 74.5l-4.4 4.4c-.4.4-1 .4-1.3 0L80.2 39.7c-.4-.4-.4-1 0-1.3l4.4-4.4c.4-.4 1-.4 1.3 0l39.3 39.3c.3.2.3.8 0 1.2z"/>
    </g>
</symbol><symbol id="icon-pen" viewBox="0 0 25 25">
    <style>
        .st0{opacity:.9}.st1{fill:#fff}
    </style>
    <g transform="translate(-1367 -787)" class="st0">
        <path id="b6fra" class="st1" d="M1387.2 809.1c-.4-.1-.8-.3-1.2-.5l2.6-2.6c.2.4.4.8.5 1.2l.9 2.8-2.8-.9zm-7.9-7.1l-1.3-1.3 2.7-2.7 1.3 1.3-.3-.3-2.6 2.6.2.4zm8.5 3.2l.2.2-2.6 2.6-.2-.2-5.9-5.9 2.6-2.6 5.9 5.9zm-16.8-11.6l2.6-2.6 6.4 6.4-2.6 2.6-6.4-6.4zm-.8-2.7l.7-.7c.2-.2.6-.2.8 0l1.3 1.3-1.6 1.6-1.3-1.3c-.2-.3-.2-.7.1-.9zm20.6 16.7c-.3-1-.9-2-1.7-2.7l-16.1-16.1c-.2-.2-.6-.2-.9 0l-.1.1-1.3-1.3c-.7-.7-1.9-.7-2.6 0l-.7.8c-.7.7-.7 1.9 0 2.6l1.3 1.3-.5.5c-1.2 1.2-1.2 3.1 0 4.3l4.9 4.8c.3.2.6.2.9 0 .2-.2.2-.6 0-.8l-4.9-4.8c-.7-.7-.7-1.8 0-2.5l7.3 7.3 1.3 1.3.9.9 6.2 6.2c.8.8 1.7 1.3 2.7 1.7l3.6 1.1c.3.1.7-.1.8-.4v-.4l-1.1-3.9z"/>
    </g>
</symbol><symbol id="icon-phone" viewBox="0 0 18 18">
    <style>
        .st0{opacity:.9}.st1{opacity:0}.st2{fill:#fff}
    </style>
    <g class="st0">
        <g transform="translate(-1197 -27)">
            <path id="hlg3a" d="M1198.8 31.5c0-.4.2-.8.5-1.1l1.2-1.2c.2-.2.4-.3.6-.3.2 0 .4.1.6.3.2.2.4.4.7.6.1.1.2.2.3.4l1 1c.2.2.3.4.3.6 0 .2-.1.4-.3.6l-.3.3-.9.9c-.3.3-.2.5-.2.7.3.6.6 1.2 1.2 1.9 1 1.2 2.1 2.2 3.2 2.9.1.1.3.2.4.2.1.1.3.1.4.2.1.1.2.1.3.1.3 0 .4-.2.5-.2l1.2-1.2c.2-.2.4-.3.6-.3.3 0 .5.2.6.3l2 2c.4.4.4.8 0 1.3-.1.2-.3.3-.4.4l-.7.7c-.4.4-.8.6-1.4.6h-.2c-1.1-.1-2.1-.5-2.9-.9-2.1-1-3.9-2.4-5.4-4.2-1.2-1.5-2.1-2.9-2.6-4.4-.2-.8-.3-1.6-.3-2.2zm2.4 7.1c1.6 1.9 3.5 3.4 5.7 4.4.8.4 1.9.9 3.2.9h.2c.8 0 1.5-.3 2-.9.2-.2.4-.4.6-.7.2-.1.3-.3.5-.5.7-.7.7-1.7 0-2.4l-2-2c-.3-.4-.7-.5-1.2-.5s-.8.2-1.2.5l-1.2 1.2c-.1-.1-.2-.1-.3-.2-.1-.1-.2-.1-.4-.2-1.1-.7-2.1-1.6-3-2.7-.5-.6-.8-1.1-1-1.6l.9-.9.3-.3c.4-.4.6-.8.6-1.2 0-.4-.2-.8-.6-1.2l-1-1-.3-.3c-.2-.2-.4-.5-.7-.7-.3-.3-.7-.5-1.2-.5-.4 0-.8.2-1.2.5l-1.2 1.2c-.5.5-.7 1-.8 1.6-.1.8.1 1.6.5 2.7.7 1.8 1.5 3.3 2.8 4.8z"/>
        </g>
        <g transform="translate(-1197 -27)">
            <g id="hlg3a_1_">
                <g class="st1">
                    <path class="st2" d="M1198.8 31.5c0-.4.2-.8.5-1.1l1.2-1.2c.2-.2.4-.3.6-.3.2 0 .4.1.6.3.2.2.4.4.7.6.1.1.2.2.3.4l1 1c.2.2.3.4.3.6 0 .2-.1.4-.3.6l-.3.3-.9.9c-.3.3-.2.5-.2.7.3.6.6 1.2 1.2 1.9 1 1.2 2.1 2.2 3.2 2.9.1.1.3.2.4.2.1.1.3.1.4.2.1.1.2.1.3.1.3 0 .4-.2.5-.2l1.2-1.2c.2-.2.4-.3.6-.3.3 0 .5.2.6.3l2 2c.4.4.4.8 0 1.3-.1.2-.3.3-.4.4l-.7.7c-.4.4-.8.6-1.4.6h-.2c-1.1-.1-2.1-.5-2.9-.9-2.1-1-3.9-2.4-5.4-4.2-1.2-1.5-2.1-2.9-2.6-4.4-.2-.8-.3-1.6-.3-2.2zm2.4 7.1c1.6 1.9 3.5 3.4 5.7 4.4.8.4 1.9.9 3.2.9h.2c.8 0 1.5-.3 2-.9.2-.2.4-.4.6-.7.2-.1.3-.3.5-.5.7-.7.7-1.7 0-2.4l-2-2c-.3-.4-.7-.5-1.2-.5s-.8.2-1.2.5l-1.2 1.2c-.1-.1-.2-.1-.3-.2-.1-.1-.2-.1-.4-.2-1.1-.7-2.1-1.6-3-2.7-.5-.6-.8-1.1-1-1.6l.9-.9.3-.3c.4-.4.6-.8.6-1.2 0-.4-.2-.8-.6-1.2l-1-1-.3-.3c-.2-.2-.4-.5-.7-.7-.3-.3-.7-.5-1.2-.5-.4 0-.8.2-1.2.5l-1.2 1.2c-.5.5-.7 1-.8 1.6-.1.8.1 1.6.5 2.7.7 1.8 1.5 3.3 2.8 4.8z"/>
                </g>
                <path d="M1210.3 44.5h-.3c-1.3-.1-2.5-.6-3.4-1-2.3-1.1-4.2-2.6-5.8-4.6-1.3-1.6-2.2-3.1-2.9-4.7-.4-1.1-.6-2-.5-2.9.1-.8.4-1.4.9-1.9l1.2-1.2c.9-.9 2.2-.9 3.1 0 .2.2.5.4.7.7l1.3 1.3c.5.5.7 1 .7 1.5 0 .6-.2 1.1-.7 1.5l-.3.3-.6.6c.2.4.4.7.8 1.2.9 1.1 1.9 2 2.9 2.6.1.1.2.1.3.2l.9-.9c.9-.9 2.2-.9 3.1 0l2 2c.9.9.9 2.1 0 3.1l-.5.5c-.3.2-.4.4-.6.6l-.1.1c-.4.7-1.2 1-2.2 1zm-11-13c0 .6.1 1.3.4 2.1.5 1.4 1.3 2.8 2.5 4.2 1.4 1.7 3.2 3.1 5.2 4.1.7.3 1.7.7 2.7.8h.1c.4 0 .8-.1 1.1-.4.2-.2.4-.5.7-.7l.5-.5c.2-.3.2-.4 0-.6l-2-2c-.2-.2-.3-.2-.5 0l-1.2 1.2c-.3.3-.6.4-.8.4-.2 0-.4 0-.5-.1-.2-.1-.3-.2-.4-.2-.2-.1-.4-.2-.5-.3-1.2-.8-2.3-1.8-3.3-3-.6-.7-1-1.3-1.2-2-.2-.5-.1-1 .3-1.3.3-.3.6-.5.8-.8l.4-.4c.2-.2.2-.2.2-.3 0-.1-.1-.2-.2-.3L1202 30l-.6-.6c-.2-.2-.3-.2-.5 0l-1.2 1.2c-.2.3-.3.6-.4.9z"/>
            </g>
        </g>
    </g>
</symbol></svg>